{
	"asset":{
		"generator":"Khronos glTF Blender I/O v3.6.28",
		"version":"2.0"
	},
	"scene":0,
	"scenes":[
		{
			"name":"Scene",
			"nodes":[
				0,
				1
			]
		}
	],
	"nodes":[
		{
			"mesh":0,
			"name":"trunk.003",
			"scale":[
				1,
				4.196914196014404,
				1
			],
			"translation":[
				0,
				2.7243404388427734,
				-0.2658576965332031
			]
		},
		{
			"mesh":1,
			"name":"Cube",
			"scale":[
				2.3895697593688965,
				2.3895697593688965,
				2.3895697593688965
			],
			"translation":[
				0,
				8.152637481689453,
				-0.4124889373779297
			]
		}
	],
	"materials":[
		{
			"doubleSided":true,
			"name":"trunk",
			"pbrMetallicRoughness":{
				"baseColorTexture":{
					"index":0
				},
				"metallicFactor":0,
				"roughnessFactor":0.5
			}
		},
		{
			"doubleSided":true,
			"name":"PineLeaves",
			"pbrMetallicRoughness":{
				"baseColorTexture":{
					"index":1
				},
				"metallicFactor":0,
				"roughnessFactor":0.5
			}
		}
	],
	"meshes":[
		{
			"name":"Cylinder.002",
			"primitives":[
				{
					"attributes":{
						"POSITION":0,
						"TEXCOORD_0":1
					},
					"indices":2,
					"material":0
				}
			]
		},
		{
			"name":"Cube.006",
			"primitives":[
				{
					"attributes":{
						"POSITION":3,
						"TEXCOORD_0":4
					},
					"indices":5,
					"material":1
				},
				{
					"attributes":{
						"POSITION":6,
						"TEXCOORD_0":7
					},
					"indices":8,
					"material":1
				}
			]
		}
	],
	"textures":[
		{
			"sampler":0,
			"source":0
		},
		{
			"sampler":0,
			"source":1
		}
	],
	"images":[
		{
			"bufferView":3,
			"mimeType":"image/png",
			"name":"trunkTexture"
		},
		{
			"bufferView":7,
			"mimeType":"image/png",
			"name":"PineLeaves"
		}
	],
	"accessors":[
		{
			"bufferView":0,
			"componentType":5126,
			"count":196,
			"max":[
				1.4772932529449463,
				1.2871520519256592,
				1.4772932529449463
			],
			"min":[
				-1.4772932529449463,
				-0.7128479480743408,
				-1.4772932529449463
			],
			"type":"VEC3"
		},
		{
			"bufferView":1,
			"componentType":5126,
			"count":196,
			"type":"VEC2"
		},
		{
			"bufferView":2,
			"componentType":5123,
			"count":756,
			"type":"SCALAR"
		},
		{
			"bufferView":4,
			"componentType":5126,
			"count":24,
			"max":[
				1.5,
				-0.7391834259033203,
				1.5000007152557373
			],
			"min":[
				-1.5,
				-1.3346067667007446,
				-1.4999992847442627
			],
			"type":"VEC3"
		},
		{
			"bufferView":5,
			"componentType":5126,
			"count":24,
			"type":"VEC2"
		},
		{
			"bufferView":6,
			"componentType":5123,
			"count":72,
			"type":"SCALAR"
		},
		{
			"bufferView":8,
			"componentType":5126,
			"count":107,
			"max":[
				1.359358310699463,
				2.0505123138427734,
				1.3593590259552002
			],
			"min":[
				-1.359358310699463,
				-0.7391834259033203,
				-1.3593575954437256
			],
			"type":"VEC3"
		},
		{
			"bufferView":9,
			"componentType":5126,
			"count":107,
			"type":"VEC2"
		},
		{
			"bufferView":10,
			"componentType":5123,
			"count":336,
			"type":"SCALAR"
		}
	],
	"bufferViews":[
		{
			"buffer":0,
			"byteLength":2352,
			"byteOffset":0,
			"target":34962
		},
		{
			"buffer":0,
			"byteLength":1568,
			"byteOffset":2352,
			"target":34962
		},
		{
			"buffer":0,
			"byteLength":1512,
			"byteOffset":3920,
			"target":34963
		},
		{
			"buffer":0,
			"byteLength":531647,
			"byteOffset":5432
		},
		{
			"buffer":0,
			"byteLength":288,
			"byteOffset":537080,
			"target":34962
		},
		{
			"buffer":0,
			"byteLength":192,
			"byteOffset":537368,
			"target":34962
		},
		{
			"buffer":0,
			"byteLength":144,
			"byteOffset":537560,
			"target":34963
		},
		{
			"buffer":0,
			"byteLength":251524,
			"byteOffset":537704
		},
		{
			"buffer":0,
			"byteLength":1284,
			"byteOffset":789228,
			"target":34962
		},
		{
			"buffer":0,
			"byteLength":856,
			"byteOffset":790512,
			"target":34962
		},
		{
			"buffer":0,
			"byteLength":672,
			"byteOffset":791368,
			"target":34963
		}
	],
	"samplers":[
		{
			"magFilter":9729,
			"minFilter":9987
		}
	],
	"buffers":[
		{
			"byteLength":792040,
			"uri":"data:application/octet-stream;base64,"
		}
	]
}
