{
	"asset":{
		"generator":"Khronos glTF Blender I/O v3.6.28",
		"version":"2.0"
	},
	"scene":0,
	"scenes":[
		{
			"name":"Scene",
			"nodes":[
				0
			]
		}
	],
	"nodes":[
		{
			"mesh":0,
			"name":"grass4",
			"scale":[
				0.41728508472442627,
				0.5973302721977234,
				0.4172847867012024
			],
			"translation":[
				-0.18228530883789062,
				0.23073309659957886,
				-0.2135782241821289
			]
		}
	],
	"materials":[
		{
			"doubleSided":true,
			"name":"grass",
			"pbrMetallicRoughness":{
				"baseColorFactor":[
					0.04943025857210159,
					0.15743376314640045,
					0.0349988117814064,
					1
				],
				"metallicFactor":0,
				"roughnessFactor":0.5
			}
		}
	],
	"meshes":[
		{
			"name":"Cylinder",
			"primitives":[
				{
					"attributes":{
						"POSITION":0,
						"NORMAL":1,
						"TEXCOORD_0":2
					},
					"indices":3,
					"material":0
				}
			]
		}
	],
	"accessors":[
		{
			"bufferView":0,
			"componentType":5126,
			"count":2750,
			"max":[
				6.161501884460449,
				3.083836555480957,
				6.629388809204102
			],
			"min":[
				-6.3956499099731445,
				-0.9999995231628418,
				-6.497305870056152
			],
			"type":"VEC3"
		},
		{
			"bufferView":1,
			"componentType":5126,
			"count":2750,
			"type":"VEC3"
		},
		{
			"bufferView":2,
			"componentType":5126,
			"count":2750,
			"type":"VEC2"
		},
		{
			"bufferView":3,
			"componentType":5123,
			"count":4500,
			"type":"SCALAR"
		}
	],
	"bufferViews":[
		{
			"buffer":0,
			"byteLength":33000,
			"byteOffset":0,
			"target":34962
		},
		{
			"buffer":0,
			"byteLength":33000,
			"byteOffset":33000,
			"target":34962
		},
		{
			"buffer":0,
			"byteLength":22000,
			"byteOffset":66000,
			"target":34962
		},
		{
			"buffer":0,
			"byteLength":9000,
			"byteOffset":88000,
			"target":34963
		}
	],
	"buffers":[
		{
			"byteLength":97000,
			"uri":"data:application/octet-stream;base64,"
		}
	]
}
