{
	"asset":{
		"generator":"Khronos glTF Blender I/O v3.6.28",
		"version":"2.0"
	},
	"scene":0,
	"scenes":[
		{
			"name":"Scene",
			"nodes":[
				0,
				1
			]
		}
	],
	"nodes":[
		{
			"mesh":0,
			"name":"Cube"
		},
		{
			"mesh":1,
			"name":"Cube.001",
			"rotation":[
				0,
				-0.9238795638084412,
				0,
				0.3826834559440613
			],
			"scale":[
				1,
				0.6763652563095093,
				1
			],
			"translation":[
				0,
				0,
				-0.543138861656189
			]
		}
	],
	"materials":[
		{
			"doubleSided":true,
			"name":"grass",
			"pbrMetallicRoughness":{
				"baseColorFactor":[
					0.04943025857210159,
					0.15743376314640045,
					0.0349988117814064,
					1
				],
				"metallicFactor":0,
				"roughnessFactor":0.5
			}
		}
	],
	"meshes":[
		{
			"name":"Cube.001",
			"primitives":[
				{
					"attributes":{
						"POSITION":0,
						"NORMAL":1,
						"TEXCOORD_0":2
					},
					"indices":3,
					"material":0
				}
			]
		},
		{
			"name":"Cube.002",
			"primitives":[
				{
					"attributes":{
						"POSITION":4,
						"NORMAL":5,
						"TEXCOORD_0":6
					},
					"indices":7,
					"material":0
				}
			]
		}
	],
	"accessors":[
		{
			"bufferView":0,
			"componentType":5126,
			"count":416,
			"max":[
				0.5119661092758179,
				6.876543998718262,
				2.019575357437134
			],
			"min":[
				-0.5119660496711731,
				0.07877910882234573,
				-0.20075440406799316
			],
			"type":"VEC3"
		},
		{
			"bufferView":1,
			"componentType":5126,
			"count":416,
			"type":"VEC3"
		},
		{
			"bufferView":2,
			"componentType":5126,
			"count":416,
			"type":"VEC2"
		},
		{
			"bufferView":3,
			"componentType":5123,
			"count":624,
			"type":"SCALAR"
		},
		{
			"bufferView":4,
			"componentType":5126,
			"count":416,
			"max":[
				0.5046740770339966,
				6.849315166473389,
				2.0119855403900146
			],
			"min":[
				-0.5274706482887268,
				0.07877910882234573,
				-0.20235514640808105
			],
			"type":"VEC3"
		},
		{
			"bufferView":5,
			"componentType":5126,
			"count":416,
			"type":"VEC3"
		},
		{
			"bufferView":6,
			"componentType":5126,
			"count":416,
			"type":"VEC2"
		},
		{
			"bufferView":7,
			"componentType":5123,
			"count":624,
			"type":"SCALAR"
		}
	],
	"bufferViews":[
		{
			"buffer":0,
			"byteLength":4992,
			"byteOffset":0,
			"target":34962
		},
		{
			"buffer":0,
			"byteLength":4992,
			"byteOffset":4992,
			"target":34962
		},
		{
			"buffer":0,
			"byteLength":3328,
			"byteOffset":9984,
			"target":34962
		},
		{
			"buffer":0,
			"byteLength":1248,
			"byteOffset":13312,
			"target":34963
		},
		{
			"buffer":0,
			"byteLength":4992,
			"byteOffset":14560,
			"target":34962
		},
		{
			"buffer":0,
			"byteLength":4992,
			"byteOffset":19552,
			"target":34962
		},
		{
			"buffer":0,
			"byteLength":3328,
			"byteOffset":24544,
			"target":34962
		},
		{
			"buffer":0,
			"byteLength":1248,
			"byteOffset":27872,
			"target":34963
		}
	],
	"buffers":[
		{
			"byteLength":29120,
			"uri":"data:application/octet-stream;base64,"
		}
	]
}
