{
	"asset":{
		"generator":"Khronos glTF Blender I/O v3.6.28",
		"version":"2.0"
	},
	"scene":0,
	"scenes":[
		{
			"name":"Scene",
			"nodes":[
				0,
				1,
				2,
				3
			]
		}
	],
	"nodes":[
		{
			"mesh":0,
			"name":"feuille.005",
			"rotation":[
				0.25523877143859863,
				0.9625645279884338,
				0.023382622748613358,
				0.08818123489618301
			],
			"scale":[
				0.42025110125541687,
				0.042025092989206314,
				0.4202510714530945
			],
			"translation":[
				-2.1962039470672607,
				0.10030972957611084,
				-2.1453475952148438
			]
		},
		{
			"mesh":1,
			"name":"feuille.001",
			"rotation":[
				0.25504085421562195,
				0.9618182182312012,
				0.025450631976127625,
				0.0959801897406578
			],
			"scale":[
				0.42025110125541687,
				0.042025092989206314,
				0.42025110125541687
			],
			"translation":[
				1.3841840028762817,
				0.10030972957611084,
				-2.1453475952148438
			]
		},
		{
			"mesh":2,
			"name":"feuille.002",
			"rotation":[
				0.1954229772090912,
				0.7369852662086487,
				0.16584163904190063,
				0.6254271268844604
			],
			"scale":[
				0.42025110125541687,
				0.042025092989206314,
				0.4202510714530945
			],
			"translation":[
				-2.1962039470672607,
				0.10030972957611084,
				1.4326505661010742
			]
		},
		{
			"mesh":3,
			"name":"feuille.003",
			"rotation":[
				-0.16396929323673248,
				-0.6183661222457886,
				0.1969965696334839,
				0.7429197430610657
			],
			"scale":[
				0.42025110125541687,
				0.042025092989206314,
				0.4202510714530945
			],
			"translation":[
				1.8297861814498901,
				0.10030972957611084,
				2.095494270324707
			]
		}
	],
	"materials":[
		{
			"doubleSided":true,
			"name":"grass",
			"pbrMetallicRoughness":{
				"baseColorFactor":[
					0.04943025857210159,
					0.15743376314640045,
					0.0349988117814064,
					1
				],
				"metallicFactor":0,
				"roughnessFactor":0.5
			}
		}
	],
	"meshes":[
		{
			"name":"Cube.015",
			"primitives":[
				{
					"attributes":{
						"POSITION":0,
						"NORMAL":1,
						"TEXCOORD_0":2
					},
					"indices":3,
					"material":0
				}
			]
		},
		{
			"name":"Cube.013",
			"primitives":[
				{
					"attributes":{
						"POSITION":4,
						"NORMAL":5,
						"TEXCOORD_0":6
					},
					"indices":3,
					"material":0
				}
			]
		},
		{
			"name":"Cube.014",
			"primitives":[
				{
					"attributes":{
						"POSITION":7,
						"NORMAL":8,
						"TEXCOORD_0":9
					},
					"indices":3,
					"material":0
				}
			]
		},
		{
			"name":"Cube.016",
			"primitives":[
				{
					"attributes":{
						"POSITION":10,
						"NORMAL":11,
						"TEXCOORD_0":12
					},
					"indices":3,
					"material":0
				}
			]
		}
	],
	"accessors":[
		{
			"bufferView":0,
			"componentType":5126,
			"count":1052,
			"max":[
				1.5303454399108887,
				18.142807006835938,
				2.0291736125946045
			],
			"min":[
				-1.9718244075775146,
				-0.9505553841590881,
				-1.827876091003418
			],
			"type":"VEC3"
		},
		{
			"bufferView":1,
			"componentType":5126,
			"count":1052,
			"type":"VEC3"
		},
		{
			"bufferView":2,
			"componentType":5126,
			"count":1052,
			"type":"VEC2"
		},
		{
			"bufferView":3,
			"componentType":5123,
			"count":1896,
			"type":"SCALAR"
		},
		{
			"bufferView":4,
			"componentType":5126,
			"count":1052,
			"max":[
				1.5303454399108887,
				18.142807006835938,
				2.0291736125946045
			],
			"min":[
				-1.9718244075775146,
				-0.9505553841590881,
				-1.827876091003418
			],
			"type":"VEC3"
		},
		{
			"bufferView":5,
			"componentType":5126,
			"count":1052,
			"type":"VEC3"
		},
		{
			"bufferView":6,
			"componentType":5126,
			"count":1052,
			"type":"VEC2"
		},
		{
			"bufferView":7,
			"componentType":5126,
			"count":1052,
			"max":[
				1.5303454399108887,
				18.142807006835938,
				2.0291736125946045
			],
			"min":[
				-1.9718244075775146,
				-0.9505553841590881,
				-1.827876091003418
			],
			"type":"VEC3"
		},
		{
			"bufferView":8,
			"componentType":5126,
			"count":1052,
			"type":"VEC3"
		},
		{
			"bufferView":9,
			"componentType":5126,
			"count":1052,
			"type":"VEC2"
		},
		{
			"bufferView":10,
			"componentType":5126,
			"count":1052,
			"max":[
				1.5303454399108887,
				18.142807006835938,
				2.0291736125946045
			],
			"min":[
				-1.9718244075775146,
				-0.9505553841590881,
				-1.827876091003418
			],
			"type":"VEC3"
		},
		{
			"bufferView":11,
			"componentType":5126,
			"count":1052,
			"type":"VEC3"
		},
		{
			"bufferView":12,
			"componentType":5126,
			"count":1052,
			"type":"VEC2"
		}
	],
	"bufferViews":[
		{
			"buffer":0,
			"byteLength":12624,
			"byteOffset":0,
			"target":34962
		},
		{
			"buffer":0,
			"byteLength":12624,
			"byteOffset":12624,
			"target":34962
		},
		{
			"buffer":0,
			"byteLength":8416,
			"byteOffset":25248,
			"target":34962
		},
		{
			"buffer":0,
			"byteLength":3792,
			"byteOffset":33664,
			"target":34963
		},
		{
			"buffer":0,
			"byteLength":12624,
			"byteOffset":37456,
			"target":34962
		},
		{
			"buffer":0,
			"byteLength":12624,
			"byteOffset":50080,
			"target":34962
		},
		{
			"buffer":0,
			"byteLength":8416,
			"byteOffset":62704,
			"target":34962
		},
		{
			"buffer":0,
			"byteLength":12624,
			"byteOffset":71120,
			"target":34962
		},
		{
			"buffer":0,
			"byteLength":12624,
			"byteOffset":83744,
			"target":34962
		},
		{
			"buffer":0,
			"byteLength":8416,
			"byteOffset":96368,
			"target":34962
		},
		{
			"buffer":0,
			"byteLength":12624,
			"byteOffset":104784,
			"target":34962
		},
		{
			"buffer":0,
			"byteLength":12624,
			"byteOffset":117408,
			"target":34962
		},
		{
			"buffer":0,
			"byteLength":8416,
			"byteOffset":130032,
			"target":34962
		}
	],
	"buffers":[
		{
			"byteLength":138448,
			"uri":"data:application/octet-stream;base64,"
		}
	]
}
