{
	"asset":{
		"generator":"Khronos glTF Blender I/O v3.6.28",
		"version":"2.0"
	},
	"scene":0,
	"scenes":[
		{
			"name":"Scene",
			"nodes":[
				0,
				1,
				2,
				3
			]
		}
	],
	"nodes":[
		{
			"mesh":0,
			"name":"Cube.005",
			"rotation":[
				-0.09078486263751984,
				0.28657516837120056,
				0.03156178817152977,
				0.9532243609428406
			],
			"translation":[
				0.6725387573242188,
				0,
				0.0014829635620117188
			]
		},
		{
			"mesh":1,
			"name":"Cube.006",
			"rotation":[
				0,
				-0.43661969900131226,
				0,
				0.8996462225914001
			],
			"translation":[
				-0.13136591017246246,
				0,
				0.40200328826904297
			]
		},
		{
			"mesh":2,
			"name":"Cube.007",
			"rotation":[
				0,
				0.985702395439148,
				0,
				0.16849558055400848
			],
			"scale":[
				1,
				0.6763652563095093,
				1
			],
			"translation":[
				0.20656144618988037,
				0,
				-0.6444206237792969
			]
		},
		{
			"mesh":3,
			"name":"Cube.008",
			"rotation":[
				-0.036470964550971985,
				-0.855658233165741,
				-0.06156821921467781,
				0.5125703811645508
			],
			"translation":[
				-0.9573010206222534,
				0,
				-0.1663980484008789
			]
		}
	],
	"materials":[
		{
			"doubleSided":true,
			"name":"grass",
			"pbrMetallicRoughness":{
				"baseColorFactor":[
					0.04943025857210159,
					0.15743376314640045,
					0.0349988117814064,
					1
				],
				"metallicFactor":0,
				"roughnessFactor":0.5
			}
		}
	],
	"meshes":[
		{
			"name":"Cube.006",
			"primitives":[
				{
					"attributes":{
						"POSITION":0,
						"NORMAL":1,
						"TEXCOORD_0":2
					},
					"indices":3,
					"material":0
				}
			]
		},
		{
			"name":"Cube.007",
			"primitives":[
				{
					"attributes":{
						"POSITION":4,
						"NORMAL":5,
						"TEXCOORD_0":6
					},
					"indices":7,
					"material":0
				}
			]
		},
		{
			"name":"Cube.008",
			"primitives":[
				{
					"attributes":{
						"POSITION":8,
						"NORMAL":9,
						"TEXCOORD_0":10
					},
					"indices":11,
					"material":0
				}
			]
		},
		{
			"name":"Cube.009",
			"primitives":[
				{
					"attributes":{
						"POSITION":12,
						"NORMAL":13,
						"TEXCOORD_0":14
					},
					"indices":15,
					"material":0
				}
			]
		}
	],
	"accessors":[
		{
			"bufferView":0,
			"componentType":5126,
			"count":416,
			"max":[
				0.5132066011428833,
				2.704087495803833,
				1.3937734365463257
			],
			"min":[
				-0.6448453068733215,
				0.07877910882234573,
				-0.2137489765882492
			],
			"type":"VEC3"
		},
		{
			"bufferView":1,
			"componentType":5126,
			"count":416,
			"type":"VEC3"
		},
		{
			"bufferView":2,
			"componentType":5126,
			"count":416,
			"type":"VEC2"
		},
		{
			"bufferView":3,
			"componentType":5123,
			"count":624,
			"type":"SCALAR"
		},
		{
			"bufferView":4,
			"componentType":5126,
			"count":416,
			"max":[
				0.510959267616272,
				4.870284080505371,
				2.01583194732666
			],
			"min":[
				-0.5336902141571045,
				0.07877910882234573,
				-0.20637251436710358
			],
			"type":"VEC3"
		},
		{
			"bufferView":5,
			"componentType":5126,
			"count":416,
			"type":"VEC3"
		},
		{
			"bufferView":6,
			"componentType":5126,
			"count":416,
			"type":"VEC2"
		},
		{
			"bufferView":7,
			"componentType":5123,
			"count":624,
			"type":"SCALAR"
		},
		{
			"bufferView":8,
			"componentType":5126,
			"count":416,
			"max":[
				0.9625216126441956,
				6.707998275756836,
				1.9375560283660889
			],
			"min":[
				-0.47778043150901794,
				0.07877910882234573,
				-0.20713169872760773
			],
			"type":"VEC3"
		},
		{
			"bufferView":9,
			"componentType":5126,
			"count":416,
			"type":"VEC3"
		},
		{
			"bufferView":10,
			"componentType":5126,
			"count":416,
			"type":"VEC2"
		},
		{
			"bufferView":11,
			"componentType":5123,
			"count":624,
			"type":"SCALAR"
		},
		{
			"bufferView":12,
			"componentType":5126,
			"count":416,
			"max":[
				0.4923921823501587,
				3.428956985473633,
				2.1334774494171143
			],
			"min":[
				-0.8156706094741821,
				0.07877910882234573,
				-0.20950263738632202
			],
			"type":"VEC3"
		},
		{
			"bufferView":13,
			"componentType":5126,
			"count":416,
			"type":"VEC3"
		},
		{
			"bufferView":14,
			"componentType":5126,
			"count":416,
			"type":"VEC2"
		},
		{
			"bufferView":15,
			"componentType":5123,
			"count":624,
			"type":"SCALAR"
		}
	],
	"bufferViews":[
		{
			"buffer":0,
			"byteLength":4992,
			"byteOffset":0,
			"target":34962
		},
		{
			"buffer":0,
			"byteLength":4992,
			"byteOffset":4992,
			"target":34962
		},
		{
			"buffer":0,
			"byteLength":3328,
			"byteOffset":9984,
			"target":34962
		},
		{
			"buffer":0,
			"byteLength":1248,
			"byteOffset":13312,
			"target":34963
		},
		{
			"buffer":0,
			"byteLength":4992,
			"byteOffset":14560,
			"target":34962
		},
		{
			"buffer":0,
			"byteLength":4992,
			"byteOffset":19552,
			"target":34962
		},
		{
			"buffer":0,
			"byteLength":3328,
			"byteOffset":24544,
			"target":34962
		},
		{
			"buffer":0,
			"byteLength":1248,
			"byteOffset":27872,
			"target":34963
		},
		{
			"buffer":0,
			"byteLength":4992,
			"byteOffset":29120,
			"target":34962
		},
		{
			"buffer":0,
			"byteLength":4992,
			"byteOffset":34112,
			"target":34962
		},
		{
			"buffer":0,
			"byteLength":3328,
			"byteOffset":39104,
			"target":34962
		},
		{
			"buffer":0,
			"byteLength":1248,
			"byteOffset":42432,
			"target":34963
		},
		{
			"buffer":0,
			"byteLength":4992,
			"byteOffset":43680,
			"target":34962
		},
		{
			"buffer":0,
			"byteLength":4992,
			"byteOffset":48672,
			"target":34962
		},
		{
			"buffer":0,
			"byteLength":3328,
			"byteOffset":53664,
			"target":34962
		},
		{
			"buffer":0,
			"byteLength":1248,
			"byteOffset":56992,
			"target":34963
		}
	],
	"buffers":[
		{
			"byteLength":58240,
			"uri":"data:application/octet-stream;base64,"
		}
	]
}
