{
	"asset":{
		"generator":"Khronos glTF Blender I/O v3.6.28",
		"version":"2.0"
	},
	"scene":0,
	"scenes":[
		{
			"name":"Scene",
			"nodes":[
				0,
				1,
				2
			]
		}
	],
	"nodes":[
		{
			"mesh":0,
			"name":"Cube.002",
			"rotation":[
				0,
				0.985702395439148,
				0,
				0.16849558055400848
			],
			"scale":[
				1,
				0.6763652563095093,
				1
			],
			"translation":[
				0.20656144618988037,
				0,
				-0.5555095672607422
			]
		},
		{
			"mesh":1,
			"name":"Cube.003",
			"rotation":[
				0,
				-0.43661969900131226,
				0,
				0.8996462225914001
			],
			"translation":[
				-0.13136591017246246,
				0,
				0.1438889503479004
			]
		},
		{
			"mesh":2,
			"name":"Cube.004",
			"rotation":[
				-0.09078486263751984,
				0.28657516837120056,
				0.03156178817152977,
				0.9532243609428406
			],
			"translation":[
				0.6725387573242188,
				0,
				0.22901105880737305
			]
		}
	],
	"materials":[
		{
			"doubleSided":true,
			"name":"grass",
			"pbrMetallicRoughness":{
				"baseColorFactor":[
					0.04943025857210159,
					0.15743376314640045,
					0.0349988117814064,
					1
				],
				"metallicFactor":0,
				"roughnessFactor":0.5
			}
		}
	],
	"meshes":[
		{
			"name":"Cube.003",
			"primitives":[
				{
					"attributes":{
						"POSITION":0,
						"NORMAL":1,
						"TEXCOORD_0":2
					},
					"indices":3,
					"material":0
				}
			]
		},
		{
			"name":"Cube.004",
			"primitives":[
				{
					"attributes":{
						"POSITION":4,
						"NORMAL":5,
						"TEXCOORD_0":6
					},
					"indices":7,
					"material":0
				}
			]
		},
		{
			"name":"Cube.005",
			"primitives":[
				{
					"attributes":{
						"POSITION":8,
						"NORMAL":9,
						"TEXCOORD_0":10
					},
					"indices":11,
					"material":0
				}
			]
		}
	],
	"accessors":[
		{
			"bufferView":0,
			"componentType":5126,
			"count":416,
			"max":[
				0.47709643840789795,
				7.073392868041992,
				1.6690006256103516
			],
			"min":[
				-0.9368297457695007,
				0.07877910882234573,
				-0.21253196895122528
			],
			"type":"VEC3"
		},
		{
			"bufferView":1,
			"componentType":5126,
			"count":416,
			"type":"VEC3"
		},
		{
			"bufferView":2,
			"componentType":5126,
			"count":416,
			"type":"VEC2"
		},
		{
			"bufferView":3,
			"componentType":5123,
			"count":624,
			"type":"SCALAR"
		},
		{
			"bufferView":4,
			"componentType":5126,
			"count":416,
			"max":[
				0.5325950384140015,
				3.3579623699188232,
				2.1676902770996094
			],
			"min":[
				-0.5106915831565857,
				0.07877910882234573,
				-0.21100090444087982
			],
			"type":"VEC3"
		},
		{
			"bufferView":5,
			"componentType":5126,
			"count":416,
			"type":"VEC3"
		},
		{
			"bufferView":6,
			"componentType":5126,
			"count":416,
			"type":"VEC2"
		},
		{
			"bufferView":7,
			"componentType":5123,
			"count":624,
			"type":"SCALAR"
		},
		{
			"bufferView":8,
			"componentType":5126,
			"count":416,
			"max":[
				0.5224179029464722,
				5.695773124694824,
				2.0057666301727295
			],
			"min":[
				-0.5200012922286987,
				0.07877910882234573,
				-0.20327064394950867
			],
			"type":"VEC3"
		},
		{
			"bufferView":9,
			"componentType":5126,
			"count":416,
			"type":"VEC3"
		},
		{
			"bufferView":10,
			"componentType":5126,
			"count":416,
			"type":"VEC2"
		},
		{
			"bufferView":11,
			"componentType":5123,
			"count":624,
			"type":"SCALAR"
		}
	],
	"bufferViews":[
		{
			"buffer":0,
			"byteLength":4992,
			"byteOffset":0,
			"target":34962
		},
		{
			"buffer":0,
			"byteLength":4992,
			"byteOffset":4992,
			"target":34962
		},
		{
			"buffer":0,
			"byteLength":3328,
			"byteOffset":9984,
			"target":34962
		},
		{
			"buffer":0,
			"byteLength":1248,
			"byteOffset":13312,
			"target":34963
		},
		{
			"buffer":0,
			"byteLength":4992,
			"byteOffset":14560,
			"target":34962
		},
		{
			"buffer":0,
			"byteLength":4992,
			"byteOffset":19552,
			"target":34962
		},
		{
			"buffer":0,
			"byteLength":3328,
			"byteOffset":24544,
			"target":34962
		},
		{
			"buffer":0,
			"byteLength":1248,
			"byteOffset":27872,
			"target":34963
		},
		{
			"buffer":0,
			"byteLength":4992,
			"byteOffset":29120,
			"target":34962
		},
		{
			"buffer":0,
			"byteLength":4992,
			"byteOffset":34112,
			"target":34962
		},
		{
			"buffer":0,
			"byteLength":3328,
			"byteOffset":39104,
			"target":34962
		},
		{
			"buffer":0,
			"byteLength":1248,
			"byteOffset":42432,
			"target":34963
		}
	],
	"buffers":[
		{
			"byteLength":43680,
			"uri":"data:application/octet-stream;base64,"
		}
	]
}
