{
	"asset":{
		"generator":"Khronos glTF Blender I/O v3.6.27",
		"version":"2.0"
	},
	"scene":0,
	"scenes":[
		{
			"name":"Scene",
			"nodes":[
				0,
				1,
				2,
				3,
				4,
				5,
				6,
				7,
				8,
				9,
				10
			]
		}
	],
	"nodes":[
		{
			"mesh":0,
			"name":"Base",
			"scale":[
				5,
				1,
				7.129014015197754
			],
			"translation":[
				0,
				1,
				0
			]
		},
		{
			"mesh":1,
			"name":"Plate",
			"rotation":[
				0,
				0,
				-0.5799922943115234,
				0.8146219849586487
			],
			"scale":[
				2,
				0.10000000149011612,
				4
			],
			"translation":[
				4.19690465927124,
				2.5272789001464844,
				0
			]
		},
		{
			"mesh":2,
			"name":"Cube.002",
			"rotation":[
				0.032531190663576126,
				-0.15250584483146667,
				-0.9359341263771057,
				0.3157705068588257
			],
			"scale":[
				0.25,
				0.25,
				0.25
			],
			"translation":[
				-5.074704170227051,
				7.15770959854126,
				5.816535472869873
			]
		},
		{
			"mesh":3,
			"name":"Cube.003",
			"rotation":[
				0.14657679200172424,
				-0.7024375796318054,
				-0.6890535950660706,
				0.10149833559989929
			],
			"scale":[
				0.2499999850988388,
				0.25,
				0.2499999850988388
			],
			"translation":[
				-4.764528751373291,
				8.97604751586914,
				2.918302536010742
			]
		},
		{
			"mesh":4,
			"name":"Cube.001",
			"rotation":[
				0.2796598970890045,
				-0.6771707534790039,
				0.17502881586551666,
				0.657719612121582
			],
			"scale":[
				0.2499999850988388,
				0.25,
				0.25
			],
			"translation":[
				-3.330958843231201,
				7.870199203491211,
				-1.2461700439453125
			]
		},
		{
			"mesh":5,
			"name":"Cube.004",
			"rotation":[
				-0.0168592631816864,
				0.23513123393058777,
				0.4260437488555908,
				0.8734506368637085
			],
			"scale":[
				0.25,
				0.25,
				0.25
			],
			"translation":[
				-3.806950569152832,
				10.731700897216797,
				-6.080687522888184
			]
		},
		{
			"mesh":6,
			"name":"Cube.005",
			"rotation":[
				-0.10301647335290909,
				-0.12086606025695801,
				-0.8964301943778992,
				0.41375353932380676
			],
			"scale":[
				0.2499999850988388,
				0.25,
				0.25
			],
			"translation":[
				-2.334688186645508,
				7.97178840637207,
				-8.61253833770752
			]
		},
		{
			"mesh":7,
			"name":"Cube.006",
			"rotation":[
				0.2321908175945282,
				-0.8353413939476013,
				0.4187711179256439,
				0.2700425982475281
			],
			"scale":[
				0.25,
				0.25,
				0.2499999850988388
			],
			"translation":[
				-2.68560791015625,
				8.39689826965332,
				7.8209028244018555
			]
		},
		{
			"mesh":8,
			"name":"Date",
			"rotation":[
				0.4101164937019348,
				0.5760247111320496,
				-0.4101165235042572,
				0.5760247707366943
			],
			"scale":[
				1.4445079565048218,
				1.4445079565048218,
				1.4445079565048218
			],
			"translation":[
				4.553098678588867,
				2.271192789077759,
				1.8678133487701416
			]
		},
		{
			"mesh":9,
			"name":"Text",
			"rotation":[
				0.5,
				0.5,
				-0.5,
				0.5
			],
			"scale":[
				3.0604841709136963,
				3.0604841709136963,
				3.0604841709136963
			],
			"translation":[
				0.15302444994449615,
				7.4162702560424805,
				6.060969352722168
			]
		},
		{
			"mesh":10,
			"name":"Text.001",
			"rotation":[
				0.5,
				0.5,
				-0.5,
				0.5
			],
			"scale":[
				1.9222296476364136,
				1.9222296476364136,
				1.9222296476364136
			],
			"translation":[
				0.09611179679632187,
				6.004871368408203,
				7.500495910644531
			]
		}
	],
	"animations":[
		{
			"channels":[
				{
					"sampler":0,
					"target":{
						"node":2,
						"path":"translation"
					}
				},
				{
					"sampler":1,
					"target":{
						"node":2,
						"path":"rotation"
					}
				},
				{
					"sampler":2,
					"target":{
						"node":2,
						"path":"scale"
					}
				},
				{
					"sampler":3,
					"target":{
						"node":3,
						"path":"translation"
					}
				},
				{
					"sampler":4,
					"target":{
						"node":3,
						"path":"rotation"
					}
				},
				{
					"sampler":5,
					"target":{
						"node":3,
						"path":"scale"
					}
				},
				{
					"sampler":6,
					"target":{
						"node":4,
						"path":"translation"
					}
				},
				{
					"sampler":7,
					"target":{
						"node":4,
						"path":"rotation"
					}
				},
				{
					"sampler":8,
					"target":{
						"node":4,
						"path":"scale"
					}
				},
				{
					"sampler":9,
					"target":{
						"node":5,
						"path":"translation"
					}
				},
				{
					"sampler":10,
					"target":{
						"node":5,
						"path":"rotation"
					}
				},
				{
					"sampler":11,
					"target":{
						"node":5,
						"path":"scale"
					}
				},
				{
					"sampler":12,
					"target":{
						"node":6,
						"path":"translation"
					}
				},
				{
					"sampler":13,
					"target":{
						"node":6,
						"path":"rotation"
					}
				},
				{
					"sampler":14,
					"target":{
						"node":6,
						"path":"scale"
					}
				},
				{
					"sampler":15,
					"target":{
						"node":7,
						"path":"translation"
					}
				},
				{
					"sampler":16,
					"target":{
						"node":7,
						"path":"rotation"
					}
				},
				{
					"sampler":17,
					"target":{
						"node":7,
						"path":"scale"
					}
				}
			],
			"name":"Animation",
			"samplers":[
				{
					"input":37,
					"interpolation":"LINEAR",
					"output":38
				},
				{
					"input":37,
					"interpolation":"LINEAR",
					"output":39
				},
				{
					"input":40,
					"interpolation":"STEP",
					"output":41
				},
				{
					"input":37,
					"interpolation":"LINEAR",
					"output":42
				},
				{
					"input":37,
					"interpolation":"LINEAR",
					"output":43
				},
				{
					"input":40,
					"interpolation":"STEP",
					"output":44
				},
				{
					"input":37,
					"interpolation":"LINEAR",
					"output":45
				},
				{
					"input":37,
					"interpolation":"LINEAR",
					"output":46
				},
				{
					"input":40,
					"interpolation":"STEP",
					"output":47
				},
				{
					"input":37,
					"interpolation":"LINEAR",
					"output":48
				},
				{
					"input":37,
					"interpolation":"LINEAR",
					"output":49
				},
				{
					"input":40,
					"interpolation":"STEP",
					"output":50
				},
				{
					"input":37,
					"interpolation":"LINEAR",
					"output":51
				},
				{
					"input":37,
					"interpolation":"LINEAR",
					"output":52
				},
				{
					"input":40,
					"interpolation":"STEP",
					"output":53
				},
				{
					"input":37,
					"interpolation":"LINEAR",
					"output":54
				},
				{
					"input":37,
					"interpolation":"LINEAR",
					"output":55
				},
				{
					"input":40,
					"interpolation":"STEP",
					"output":56
				}
			]
		}
	],
	"materials":[
		{
			"doubleSided":true,
			"name":"Material.001",
			"pbrMetallicRoughness":{
				"baseColorTexture":{
					"index":0
				},
				"metallicFactor":0,
				"roughnessFactor":0.5
			}
		},
		{
			"doubleSided":true,
			"name":"gold",
			"pbrMetallicRoughness":{
				"baseColorFactor":[
					0.28829503059387207,
					0.1487342119216919,
					0.012006676755845547,
					1
				],
				"metallicFactor":0,
				"roughnessFactor":0.5
			}
		},
		{
			"alphaMode":"BLEND",
			"doubleSided":true,
			"name":"Material",
			"pbrMetallicRoughness":{
				"baseColorFactor":[
					0.02732044644653797,
					0.23839737474918365,
					0.40724021196365356,
					0.5
				],
				"metallicFactor":0,
				"roughnessFactor":0.5
			}
		},
		{
			"doubleSided":true,
			"name":"Black",
			"pbrMetallicRoughness":{
				"baseColorFactor":[
					0.05496808513998985,
					0.05496808513998985,
					0.05496808513998985,
					1
				],
				"metallicFactor":0,
				"roughnessFactor":0.5
			}
		},
		{
			"doubleSided":true,
			"name":"text",
			"pbrMetallicRoughness":{
				"baseColorFactor":[
					1,
					0.2692438066005707,
					0.0372481569647789,
					1
				],
				"metallicFactor":0,
				"roughnessFactor":0.5
			}
		}
	],
	"meshes":[
		{
			"name":"Cube.001",
			"primitives":[
				{
					"attributes":{
						"POSITION":0,
						"NORMAL":1,
						"TEXCOORD_0":2
					},
					"indices":3,
					"material":0
				}
			]
		},
		{
			"name":"Cube.002",
			"primitives":[
				{
					"attributes":{
						"POSITION":4,
						"NORMAL":5,
						"TEXCOORD_0":6
					},
					"indices":3,
					"material":1
				}
			]
		},
		{
			"name":"Cube.004",
			"primitives":[
				{
					"attributes":{
						"POSITION":7,
						"NORMAL":8,
						"TEXCOORD_0":9
					},
					"indices":3,
					"material":2
				}
			]
		},
		{
			"name":"Cube.005",
			"primitives":[
				{
					"attributes":{
						"POSITION":10,
						"NORMAL":11,
						"TEXCOORD_0":12
					},
					"indices":3,
					"material":2
				}
			]
		},
		{
			"name":"Cube.006",
			"primitives":[
				{
					"attributes":{
						"POSITION":13,
						"NORMAL":14,
						"TEXCOORD_0":15
					},
					"indices":3,
					"material":2
				}
			]
		},
		{
			"name":"Cube.007",
			"primitives":[
				{
					"attributes":{
						"POSITION":16,
						"NORMAL":17,
						"TEXCOORD_0":18
					},
					"indices":3,
					"material":2
				}
			]
		},
		{
			"name":"Cube.008",
			"primitives":[
				{
					"attributes":{
						"POSITION":19,
						"NORMAL":20,
						"TEXCOORD_0":21
					},
					"indices":3,
					"material":2
				}
			]
		},
		{
			"name":"Cube.009",
			"primitives":[
				{
					"attributes":{
						"POSITION":22,
						"NORMAL":23,
						"TEXCOORD_0":24
					},
					"indices":3,
					"material":2
				}
			]
		},
		{
			"name":"Text.003",
			"primitives":[
				{
					"attributes":{
						"POSITION":25,
						"NORMAL":26,
						"TEXCOORD_0":27
					},
					"indices":28,
					"material":3
				}
			]
		},
		{
			"name":"Text",
			"primitives":[
				{
					"attributes":{
						"POSITION":29,
						"NORMAL":30,
						"TEXCOORD_0":31
					},
					"indices":32,
					"material":4
				}
			]
		},
		{
			"name":"Text.001",
			"primitives":[
				{
					"attributes":{
						"POSITION":33,
						"NORMAL":34,
						"TEXCOORD_0":35
					},
					"indices":36,
					"material":4
				}
			]
		}
	],
	"textures":[
		{
			"sampler":0,
			"source":0
		}
	],
	"images":[
		{
			"bufferView":4,
			"mimeType":"image/png",
			"name":"base"
		}
	],
	"accessors":[
		{
			"bufferView":0,
			"componentType":5126,
			"count":24,
			"max":[
				1,
				4.054557800292969,
				1
			],
			"min":[
				-1,
				-1,
				-1
			],
			"type":"VEC3"
		},
		{
			"bufferView":1,
			"componentType":5126,
			"count":24,
			"type":"VEC3"
		},
		{
			"bufferView":2,
			"componentType":5126,
			"count":24,
			"type":"VEC2"
		},
		{
			"bufferView":3,
			"componentType":5123,
			"count":36,
			"type":"SCALAR"
		},
		{
			"bufferView":5,
			"componentType":5126,
			"count":24,
			"max":[
				1,
				1,
				1
			],
			"min":[
				-1,
				-1,
				-1
			],
			"type":"VEC3"
		},
		{
			"bufferView":6,
			"componentType":5126,
			"count":24,
			"type":"VEC3"
		},
		{
			"bufferView":7,
			"componentType":5126,
			"count":24,
			"type":"VEC2"
		},
		{
			"bufferView":8,
			"componentType":5126,
			"count":24,
			"max":[
				1,
				1,
				1
			],
			"min":[
				-1,
				-1,
				-1
			],
			"type":"VEC3"
		},
		{
			"bufferView":9,
			"componentType":5126,
			"count":24,
			"type":"VEC3"
		},
		{
			"bufferView":10,
			"componentType":5126,
			"count":24,
			"type":"VEC2"
		},
		{
			"bufferView":11,
			"componentType":5126,
			"count":24,
			"max":[
				1,
				1,
				1
			],
			"min":[
				-1,
				-1,
				-1
			],
			"type":"VEC3"
		},
		{
			"bufferView":12,
			"componentType":5126,
			"count":24,
			"type":"VEC3"
		},
		{
			"bufferView":13,
			"componentType":5126,
			"count":24,
			"type":"VEC2"
		},
		{
			"bufferView":14,
			"componentType":5126,
			"count":24,
			"max":[
				1,
				1,
				1
			],
			"min":[
				-1,
				-1,
				-1
			],
			"type":"VEC3"
		},
		{
			"bufferView":15,
			"componentType":5126,
			"count":24,
			"type":"VEC3"
		},
		{
			"bufferView":16,
			"componentType":5126,
			"count":24,
			"type":"VEC2"
		},
		{
			"bufferView":17,
			"componentType":5126,
			"count":24,
			"max":[
				1,
				1,
				1
			],
			"min":[
				-1,
				-1,
				-1
			],
			"type":"VEC3"
		},
		{
			"bufferView":18,
			"componentType":5126,
			"count":24,
			"type":"VEC3"
		},
		{
			"bufferView":19,
			"componentType":5126,
			"count":24,
			"type":"VEC2"
		},
		{
			"bufferView":20,
			"componentType":5126,
			"count":24,
			"max":[
				1,
				1,
				1
			],
			"min":[
				-1,
				-1,
				-1
			],
			"type":"VEC3"
		},
		{
			"bufferView":21,
			"componentType":5126,
			"count":24,
			"type":"VEC3"
		},
		{
			"bufferView":22,
			"componentType":5126,
			"count":24,
			"type":"VEC2"
		},
		{
			"bufferView":23,
			"componentType":5126,
			"count":24,
			"max":[
				1,
				1,
				1
			],
			"min":[
				-1,
				-1,
				-1
			],
			"type":"VEC3"
		},
		{
			"bufferView":24,
			"componentType":5126,
			"count":24,
			"type":"VEC3"
		},
		{
			"bufferView":25,
			"componentType":5126,
			"count":24,
			"type":"VEC2"
		},
		{
			"bufferView":26,
			"componentType":5126,
			"count":1110,
			"max":[
				2.5687010288238525,
				0,
				0.008523695170879364
			],
			"min":[
				0.01738833822309971,
				0,
				-0.5049437284469604
			],
			"type":"VEC3"
		},
		{
			"bufferView":27,
			"componentType":5126,
			"count":1110,
			"type":"VEC3"
		},
		{
			"bufferView":28,
			"componentType":5126,
			"count":1110,
			"type":"VEC2"
		},
		{
			"bufferView":29,
			"componentType":5123,
			"count":3300,
			"type":"SCALAR"
		},
		{
			"bufferView":30,
			"componentType":5126,
			"count":1202,
			"max":[
				3.908625841140747,
				0,
				0.14694851636886597
			],
			"min":[
				0.052165016531944275,
				0,
				-0.5083532333374023
			],
			"type":"VEC3"
		},
		{
			"bufferView":31,
			"componentType":5126,
			"count":1202,
			"type":"VEC3"
		},
		{
			"bufferView":32,
			"componentType":5126,
			"count":1202,
			"type":"VEC2"
		},
		{
			"bufferView":33,
			"componentType":5123,
			"count":3534,
			"type":"SCALAR"
		},
		{
			"bufferView":34,
			"componentType":5126,
			"count":2842,
			"max":[
				7.753493309020996,
				0,
				0.13774292171001434
			],
			"min":[
				0.05046027898788452,
				0,
				-0.5083532333374023
			],
			"type":"VEC3"
		},
		{
			"bufferView":35,
			"componentType":5126,
			"count":2842,
			"type":"VEC3"
		},
		{
			"bufferView":36,
			"componentType":5126,
			"count":2842,
			"type":"VEC2"
		},
		{
			"bufferView":37,
			"componentType":5123,
			"count":8442,
			"type":"SCALAR"
		},
		{
			"bufferView":38,
			"componentType":5126,
			"count":160,
			"max":[
				6.666666666666667
			],
			"min":[
				0.041666666666666664
			],
			"type":"SCALAR"
		},
		{
			"bufferView":39,
			"componentType":5126,
			"count":160,
			"type":"VEC3"
		},
		{
			"bufferView":40,
			"componentType":5126,
			"count":160,
			"type":"VEC4"
		},
		{
			"bufferView":41,
			"componentType":5126,
			"count":2,
			"max":[
				6.666666666666667
			],
			"min":[
				0.041666666666666664
			],
			"type":"SCALAR"
		},
		{
			"bufferView":42,
			"componentType":5126,
			"count":2,
			"type":"VEC3"
		},
		{
			"bufferView":43,
			"componentType":5126,
			"count":160,
			"type":"VEC3"
		},
		{
			"bufferView":44,
			"componentType":5126,
			"count":160,
			"type":"VEC4"
		},
		{
			"bufferView":45,
			"componentType":5126,
			"count":2,
			"type":"VEC3"
		},
		{
			"bufferView":46,
			"componentType":5126,
			"count":160,
			"type":"VEC3"
		},
		{
			"bufferView":47,
			"componentType":5126,
			"count":160,
			"type":"VEC4"
		},
		{
			"bufferView":48,
			"componentType":5126,
			"count":2,
			"type":"VEC3"
		},
		{
			"bufferView":49,
			"componentType":5126,
			"count":160,
			"type":"VEC3"
		},
		{
			"bufferView":50,
			"componentType":5126,
			"count":160,
			"type":"VEC4"
		},
		{
			"bufferView":51,
			"componentType":5126,
			"count":2,
			"type":"VEC3"
		},
		{
			"bufferView":52,
			"componentType":5126,
			"count":160,
			"type":"VEC3"
		},
		{
			"bufferView":53,
			"componentType":5126,
			"count":160,
			"type":"VEC4"
		},
		{
			"bufferView":54,
			"componentType":5126,
			"count":2,
			"type":"VEC3"
		},
		{
			"bufferView":55,
			"componentType":5126,
			"count":160,
			"type":"VEC3"
		},
		{
			"bufferView":56,
			"componentType":5126,
			"count":160,
			"type":"VEC4"
		},
		{
			"bufferView":57,
			"componentType":5126,
			"count":2,
			"type":"VEC3"
		}
	],
	"bufferViews":[
		{
			"buffer":0,
			"byteLength":288,
			"byteOffset":0,
			"target":34962
		},
		{
			"buffer":0,
			"byteLength":288,
			"byteOffset":288,
			"target":34962
		},
		{
			"buffer":0,
			"byteLength":192,
			"byteOffset":576,
			"target":34962
		},
		{
			"buffer":0,
			"byteLength":72,
			"byteOffset":768,
			"target":34963
		},
		{
			"buffer":0,
			"byteLength":18012,
			"byteOffset":840
		},
		{
			"buffer":0,
			"byteLength":288,
			"byteOffset":18852,
			"target":34962
		},
		{
			"buffer":0,
			"byteLength":288,
			"byteOffset":19140,
			"target":34962
		},
		{
			"buffer":0,
			"byteLength":192,
			"byteOffset":19428,
			"target":34962
		},
		{
			"buffer":0,
			"byteLength":288,
			"byteOffset":19620,
			"target":34962
		},
		{
			"buffer":0,
			"byteLength":288,
			"byteOffset":19908,
			"target":34962
		},
		{
			"buffer":0,
			"byteLength":192,
			"byteOffset":20196,
			"target":34962
		},
		{
			"buffer":0,
			"byteLength":288,
			"byteOffset":20388,
			"target":34962
		},
		{
			"buffer":0,
			"byteLength":288,
			"byteOffset":20676,
			"target":34962
		},
		{
			"buffer":0,
			"byteLength":192,
			"byteOffset":20964,
			"target":34962
		},
		{
			"buffer":0,
			"byteLength":288,
			"byteOffset":21156,
			"target":34962
		},
		{
			"buffer":0,
			"byteLength":288,
			"byteOffset":21444,
			"target":34962
		},
		{
			"buffer":0,
			"byteLength":192,
			"byteOffset":21732,
			"target":34962
		},
		{
			"buffer":0,
			"byteLength":288,
			"byteOffset":21924,
			"target":34962
		},
		{
			"buffer":0,
			"byteLength":288,
			"byteOffset":22212,
			"target":34962
		},
		{
			"buffer":0,
			"byteLength":192,
			"byteOffset":22500,
			"target":34962
		},
		{
			"buffer":0,
			"byteLength":288,
			"byteOffset":22692,
			"target":34962
		},
		{
			"buffer":0,
			"byteLength":288,
			"byteOffset":22980,
			"target":34962
		},
		{
			"buffer":0,
			"byteLength":192,
			"byteOffset":23268,
			"target":34962
		},
		{
			"buffer":0,
			"byteLength":288,
			"byteOffset":23460,
			"target":34962
		},
		{
			"buffer":0,
			"byteLength":288,
			"byteOffset":23748,
			"target":34962
		},
		{
			"buffer":0,
			"byteLength":192,
			"byteOffset":24036,
			"target":34962
		},
		{
			"buffer":0,
			"byteLength":13320,
			"byteOffset":24228,
			"target":34962
		},
		{
			"buffer":0,
			"byteLength":13320,
			"byteOffset":37548,
			"target":34962
		},
		{
			"buffer":0,
			"byteLength":8880,
			"byteOffset":50868,
			"target":34962
		},
		{
			"buffer":0,
			"byteLength":6600,
			"byteOffset":59748,
			"target":34963
		},
		{
			"buffer":0,
			"byteLength":14424,
			"byteOffset":66348,
			"target":34962
		},
		{
			"buffer":0,
			"byteLength":14424,
			"byteOffset":80772,
			"target":34962
		},
		{
			"buffer":0,
			"byteLength":9616,
			"byteOffset":95196,
			"target":34962
		},
		{
			"buffer":0,
			"byteLength":7068,
			"byteOffset":104812,
			"target":34963
		},
		{
			"buffer":0,
			"byteLength":34104,
			"byteOffset":111880,
			"target":34962
		},
		{
			"buffer":0,
			"byteLength":34104,
			"byteOffset":145984,
			"target":34962
		},
		{
			"buffer":0,
			"byteLength":22736,
			"byteOffset":180088,
			"target":34962
		},
		{
			"buffer":0,
			"byteLength":16884,
			"byteOffset":202824,
			"target":34963
		},
		{
			"buffer":0,
			"byteLength":640,
			"byteOffset":219708
		},
		{
			"buffer":0,
			"byteLength":1920,
			"byteOffset":220348
		},
		{
			"buffer":0,
			"byteLength":2560,
			"byteOffset":222268
		},
		{
			"buffer":0,
			"byteLength":8,
			"byteOffset":224828
		},
		{
			"buffer":0,
			"byteLength":24,
			"byteOffset":224836
		},
		{
			"buffer":0,
			"byteLength":1920,
			"byteOffset":224860
		},
		{
			"buffer":0,
			"byteLength":2560,
			"byteOffset":226780
		},
		{
			"buffer":0,
			"byteLength":24,
			"byteOffset":229340
		},
		{
			"buffer":0,
			"byteLength":1920,
			"byteOffset":229364
		},
		{
			"buffer":0,
			"byteLength":2560,
			"byteOffset":231284
		},
		{
			"buffer":0,
			"byteLength":24,
			"byteOffset":233844
		},
		{
			"buffer":0,
			"byteLength":1920,
			"byteOffset":233868
		},
		{
			"buffer":0,
			"byteLength":2560,
			"byteOffset":235788
		},
		{
			"buffer":0,
			"byteLength":24,
			"byteOffset":238348
		},
		{
			"buffer":0,
			"byteLength":1920,
			"byteOffset":238372
		},
		{
			"buffer":0,
			"byteLength":2560,
			"byteOffset":240292
		},
		{
			"buffer":0,
			"byteLength":24,
			"byteOffset":242852
		},
		{
			"buffer":0,
			"byteLength":1920,
			"byteOffset":242876
		},
		{
			"buffer":0,
			"byteLength":2560,
			"byteOffset":244796
		},
		{
			"buffer":0,
			"byteLength":24,
			"byteOffset":247356
		}
	],
	"samplers":[
		{
			"magFilter":9729,
			"minFilter":9987
		}
	],
	"buffers":[
		{
			"byteLength":247380,
			"uri":"data:application/octet-stream;base64,"
		}
	]
}
