{
	"asset":{
		"generator":"Khronos glTF Blender I/O v3.6.28",
		"version":"2.0"
	},
	"scene":0,
	"scenes":[
		{
			"name":"Scene",
			"nodes":[
				0,
				1
			]
		}
	],
	"nodes":[
		{
			"mesh":0,
			"name":"Cube.016",
			"scale":[
				9,
				0.6000000238418579,
				12
			],
			"translation":[
				0,
				0,
				-0.85467529296875
			]
		},
		{
			"mesh":1,
			"name":"Cube.017",
			"rotation":[
				0,
				0,
				0.8660253882408142,
				0.4999999701976776
			],
			"scale":[
				9,
				0.6000000238418579,
				12
			],
			"translation":[
				-13.651086807250977,
				7.413572311401367,
				-0.85467529296875
			]
		}
	],
	"materials":[
		{
			"doubleSided":true,
			"name":"black",
			"pbrMetallicRoughness":{
				"baseColorFactor":[
					0.027209725230932236,
					0.027209725230932236,
					0.027209725230932236,
					1
				],
				"metallicFactor":0,
				"roughnessFactor":0.5
			}
		},
		{
			"doubleSided":true,
			"name":"keyboard",
			"pbrMetallicRoughness":{
				"baseColorTexture":{
					"index":0
				},
				"metallicFactor":0,
				"roughnessFactor":0.5
			}
		},
		{
			"doubleSided":true,
			"name":"screen",
			"pbrMetallicRoughness":{
				"baseColorFactor":[
					0.22658322751522064,
					0.22658322751522064,
					0.22658322751522064,
					1
				],
				"metallicFactor":0,
				"roughnessFactor":0.5
			}
		}
	],
	"meshes":[
		{
			"name":"Cube.018",
			"primitives":[
				{
					"attributes":{
						"POSITION":0,
						"NORMAL":1,
						"TEXCOORD_0":2
					},
					"indices":3,
					"material":0
				},
				{
					"attributes":{
						"POSITION":4,
						"NORMAL":5,
						"TEXCOORD_0":6
					},
					"indices":7,
					"material":1
				}
			]
		},
		{
			"name":"Cube.019",
			"primitives":[
				{
					"attributes":{
						"POSITION":8,
						"NORMAL":9,
						"TEXCOORD_0":10
					},
					"indices":11,
					"material":0
				},
				{
					"attributes":{
						"POSITION":12,
						"NORMAL":13,
						"TEXCOORD_0":14
					},
					"indices":15,
					"material":2
				}
			]
		}
	],
	"textures":[
		{
			"sampler":0,
			"source":0
		}
	],
	"images":[
		{
			"bufferView":8,
			"mimeType":"image/png",
			"name":"keyboard"
		}
	],
	"accessors":[
		{
			"bufferView":0,
			"componentType":5126,
			"count":40,
			"max":[
				1,
				1,
				1
			],
			"min":[
				-1,
				-1,
				-1
			],
			"type":"VEC3"
		},
		{
			"bufferView":1,
			"componentType":5126,
			"count":40,
			"type":"VEC3"
		},
		{
			"bufferView":2,
			"componentType":5126,
			"count":40,
			"type":"VEC2"
		},
		{
			"bufferView":3,
			"componentType":5123,
			"count":78,
			"type":"SCALAR"
		},
		{
			"bufferView":4,
			"componentType":5126,
			"count":4,
			"max":[
				0.8741239309310913,
				1,
				1
			],
			"min":[
				-0.7549054026603699,
				1,
				-1
			],
			"type":"VEC3"
		},
		{
			"bufferView":5,
			"componentType":5126,
			"count":4,
			"type":"VEC3"
		},
		{
			"bufferView":6,
			"componentType":5126,
			"count":4,
			"type":"VEC2"
		},
		{
			"bufferView":7,
			"componentType":5123,
			"count":6,
			"type":"SCALAR"
		},
		{
			"bufferView":9,
			"componentType":5126,
			"count":36,
			"max":[
				1,
				1,
				1
			],
			"min":[
				-1,
				-1,
				-1
			],
			"type":"VEC3"
		},
		{
			"bufferView":10,
			"componentType":5126,
			"count":36,
			"type":"VEC3"
		},
		{
			"bufferView":11,
			"componentType":5126,
			"count":36,
			"type":"VEC2"
		},
		{
			"bufferView":12,
			"componentType":5123,
			"count":54,
			"type":"SCALAR"
		},
		{
			"bufferView":13,
			"componentType":5126,
			"count":4,
			"max":[
				0.9329845309257507,
				-0.3272455930709839,
				0.9017453789710999
			],
			"min":[
				-0.8705061674118042,
				-0.3272465467453003,
				-0.9017451405525208
			],
			"type":"VEC3"
		},
		{
			"bufferView":14,
			"componentType":5126,
			"count":4,
			"type":"VEC3"
		},
		{
			"bufferView":15,
			"componentType":5126,
			"count":4,
			"type":"VEC2"
		},
		{
			"bufferView":16,
			"componentType":5123,
			"count":6,
			"type":"SCALAR"
		}
	],
	"bufferViews":[
		{
			"buffer":0,
			"byteLength":480,
			"byteOffset":0,
			"target":34962
		},
		{
			"buffer":0,
			"byteLength":480,
			"byteOffset":480,
			"target":34962
		},
		{
			"buffer":0,
			"byteLength":320,
			"byteOffset":960,
			"target":34962
		},
		{
			"buffer":0,
			"byteLength":156,
			"byteOffset":1280,
			"target":34963
		},
		{
			"buffer":0,
			"byteLength":48,
			"byteOffset":1436,
			"target":34962
		},
		{
			"buffer":0,
			"byteLength":48,
			"byteOffset":1484,
			"target":34962
		},
		{
			"buffer":0,
			"byteLength":32,
			"byteOffset":1532,
			"target":34962
		},
		{
			"buffer":0,
			"byteLength":12,
			"byteOffset":1564,
			"target":34963
		},
		{
			"buffer":0,
			"byteLength":143793,
			"byteOffset":1576
		},
		{
			"buffer":0,
			"byteLength":432,
			"byteOffset":145372,
			"target":34962
		},
		{
			"buffer":0,
			"byteLength":432,
			"byteOffset":145804,
			"target":34962
		},
		{
			"buffer":0,
			"byteLength":288,
			"byteOffset":146236,
			"target":34962
		},
		{
			"buffer":0,
			"byteLength":108,
			"byteOffset":146524,
			"target":34963
		},
		{
			"buffer":0,
			"byteLength":48,
			"byteOffset":146632,
			"target":34962
		},
		{
			"buffer":0,
			"byteLength":48,
			"byteOffset":146680,
			"target":34962
		},
		{
			"buffer":0,
			"byteLength":32,
			"byteOffset":146728,
			"target":34962
		},
		{
			"buffer":0,
			"byteLength":12,
			"byteOffset":146760,
			"target":34963
		}
	],
	"samplers":[
		{
			"magFilter":9729,
			"minFilter":9987
		}
	],
	"buffers":[
		{
			"byteLength":146772,
			"uri":"data:application/octet-stream;base64,"
		}
	]
}
