{
	"asset":{
		"generator":"Khronos glTF Blender I/O v3.6.28",
		"version":"2.0"
	},
	"scene":0,
	"scenes":[
		{
			"name":"Scene",
			"nodes":[
				0
			]
		}
	],
	"nodes":[
		{
			"mesh":0,
			"name":"Cube",
			"scale":[
				5,
				1,
				5
			]
		}
	],
	"materials":[
		{
			"doubleSided":true,
			"name":"Mat\u00e9riau",
			"pbrMetallicRoughness":{
				"baseColorTexture":{
					"index":0
				},
				"metallicFactor":0,
				"roughnessFactor":0.5
			}
		}
	],
	"meshes":[
		{
			"name":"Cube",
			"primitives":[
				{
					"attributes":{
						"POSITION":0,
						"NORMAL":1,
						"TEXCOORD_0":2
					},
					"indices":3,
					"material":0
				}
			]
		}
	],
	"textures":[
		{
			"sampler":0,
			"source":0
		}
	],
	"images":[
		{
			"bufferView":4,
			"mimeType":"image/png",
			"name":"water"
		}
	],
	"accessors":[
		{
			"bufferView":0,
			"componentType":5126,
			"count":10584,
			"max":[
				1.0320634841918945,
				1.4198075532913208,
				1.0320634841918945
			],
			"min":[
				-1.0320634841918945,
				-1.0320634841918945,
				-1.0320634841918945
			],
			"type":"VEC3"
		},
		{
			"bufferView":1,
			"componentType":5126,
			"count":10584,
			"type":"VEC3"
		},
		{
			"bufferView":2,
			"componentType":5126,
			"count":10584,
			"type":"VEC2"
		},
		{
			"bufferView":3,
			"componentType":5123,
			"count":15876,
			"type":"SCALAR"
		}
	],
	"bufferViews":[
		{
			"buffer":0,
			"byteLength":127008,
			"byteOffset":0,
			"target":34962
		},
		{
			"buffer":0,
			"byteLength":127008,
			"byteOffset":127008,
			"target":34962
		},
		{
			"buffer":0,
			"byteLength":84672,
			"byteOffset":254016,
			"target":34962
		},
		{
			"buffer":0,
			"byteLength":31752,
			"byteOffset":338688,
			"target":34963
		},
		{
			"buffer":0,
			"byteLength":347696,
			"byteOffset":370440
		}
	],
	"samplers":[
		{
			"magFilter":9729,
			"minFilter":9987
		}
	],
	"buffers":[
		{
			"byteLength":718136,
			"uri":"data:application/octet-stream;base64,"
		}
	]
}
