{
	"asset":{
		"generator":"Khronos glTF Blender I/O v3.6.28",
		"version":"2.0"
	},
	"scene":0,
	"scenes":[
		{
			"name":"Scene",
			"nodes":[
				0,
				1,
				2,
				3,
				4,
				5,
				6,
				7,
				8,
				9,
				10,
				11,
				12,
				13
			]
		}
	],
	"nodes":[
		{
			"mesh":0,
			"name":"tige",
			"scale":[
				0.014999999664723873,
				0.30000001192092896,
				0.014999999664723873
			],
			"translation":[
				0.001941923052072525,
				0.2673659920692444,
				-6.995722651481628e-05
			]
		},
		{
			"mesh":1,
			"name":"pistil",
			"scale":[
				0.09614536911249161,
				0.09614536911249161,
				0.09614536911249161
			],
			"translation":[
				0,
				0.6000000238418579,
				0
			]
		},
		{
			"mesh":2,
			"name":"feuille.011",
			"rotation":[
				0.12563486397266388,
				0.969305694103241,
				0.05431215465068817,
				0.20423661172389984
			],
			"scale":[
				0.024999994784593582,
				0.0024999992456287146,
				0.024999991059303284
			],
			"translation":[
				-0.04381006583571434,
				0.39072567224502563,
				-0.021061938256025314
			]
		},
		{
			"mesh":3,
			"name":"feuille.010",
			"rotation":[
				-0.12617303431034088,
				-0.8199653029441833,
				0.08937325328588486,
				0.5511349439620972
			],
			"scale":[
				0.024999994784593582,
				0.0024999992456287146,
				0.024999991059303284
			],
			"translation":[
				-0.02065771445631981,
				0.07287902384996414,
				0.039699751883745193
			]
		},
		{
			"mesh":4,
			"name":"feuille.009",
			"rotation":[
				0.002156631089746952,
				-0.010439479723572731,
				0.15460456907749176,
				0.9879189133644104
			],
			"scale":[
				0.02499999664723873,
				0.0024999992456287146,
				0.024999994784593582
			],
			"translation":[
				0.04484338313341141,
				0.08740387111902237,
				0.002644617110490799
			]
		},
		{
			"mesh":5,
			"name":"feuille.008",
			"rotation":[
				0.11445986479520798,
				0.7148635983467102,
				0.10395265370607376,
				0.6819552183151245
			],
			"scale":[
				0.024999994784593582,
				0.0024999992456287146,
				0.024999994784593582
			],
			"translation":[
				-0.0008864961564540863,
				0.1153082326054573,
				-0.05142436921596527
			]
		},
		{
			"mesh":6,
			"name":"feuille.007",
			"rotation":[
				0.13406817615032196,
				0.6587405800819397,
				0.05572696775197983,
				0.7382283806800842
			],
			"scale":[
				0.02511386014521122,
				0.002651601331308484,
				0.025026381015777588
			],
			"translation":[
				0.008078817278146744,
				0.4768747389316559,
				-0.05078117549419403
			]
		},
		{
			"mesh":7,
			"name":"feuille.006",
			"rotation":[
				-0.15420468151569366,
				-0.9867997169494629,
				0.01132031437009573,
				0.04815880209207535
			],
			"scale":[
				0.024999994784593582,
				0.0024999992456287146,
				0.024999989196658134
			],
			"translation":[
				-0.04834270104765892,
				0.15620049834251404,
				0.0035190172493457794
			]
		},
		{
			"mesh":8,
			"name":"feuille.005",
			"rotation":[
				-0.09760511666536331,
				-0.6422634720802307,
				0.1199185848236084,
				0.7507266402244568
			],
			"scale":[
				0.024999994784593582,
				0.0024999992456287146,
				0.024999994784593582
			],
			"translation":[
				0.007511679083108902,
				0.19208967685699463,
				0.050406236201524734
			]
		},
		{
			"mesh":9,
			"name":"feuille.004",
			"rotation":[
				0.006396088749170303,
				-0.26434141397476196,
				0.13213877379894257,
				0.9553125500679016
			],
			"scale":[
				0.024999991059303284,
				0.0024999992456287146,
				0.024999994784593582
			],
			"translation":[
				0.03893715888261795,
				0.34577834606170654,
				0.031028706580400467
			]
		},
		{
			"mesh":10,
			"name":"feuille.003",
			"rotation":[
				0.03621385619044304,
				0.2077820897102356,
				0.150318905711174,
				0.9658776521682739
			],
			"scale":[
				0.02499999664723873,
				0.0024999992456287146,
				0.024999994784593582
			],
			"translation":[
				0.049698300659656525,
				0.24685579538345337,
				-0.014644544571638107
			]
		},
		{
			"mesh":11,
			"name":"feuille.002",
			"rotation":[
				0.14410801231861115,
				0.8327707052230835,
				0.017682015895843506,
				0.5342407822608948
			],
			"scale":[
				0.024999994784593582,
				0.0024999987799674273,
				0.024999992921948433
			],
			"translation":[
				-0.020722147077322006,
				0.2880356013774872,
				-0.04519139230251312
			]
		},
		{
			"mesh":12,
			"name":"feuille.001",
			"rotation":[
				-0.13682249188423157,
				-0.9757203459739685,
				-0.0036805965937674046,
				0.17098498344421387
			],
			"scale":[
				0.024999994784593582,
				0.0024999992456287146,
				0.024999994784593582
			],
			"translation":[
				-0.04381006583571434,
				0.3218778371810913,
				0.013219732791185379
			]
		},
		{
			"mesh":13,
			"name":"feuille",
			"rotation":[
				-0.1812368482351303,
				-0.6834860444068909,
				0.18123683333396912,
				0.6834861040115356
			],
			"scale":[
				0.024999994784593582,
				0.0024999992456287146,
				0.024999994784593582
			],
			"translation":[
				0.0009059347212314606,
				0.37441927194595337,
				0.04914333298802376
			]
		}
	],
	"materials":[
		{
			"doubleSided":true,
			"name":"green",
			"pbrMetallicRoughness":{
				"baseColorFactor":[
					0.04146132245659828,
					0.2019004374742508,
					0.07071749120950699,
					1
				],
				"metallicFactor":0,
				"roughnessFactor":0.5
			}
		},
		{
			"doubleSided":true,
			"name":"red",
			"pbrMetallicRoughness":{
				"baseColorFactor":[
					0.6738469004631042,
					0.07858705520629883,
					0.10912453383207321,
					1
				],
				"metallicFactor":0,
				"roughnessFactor":0.5
			}
		},
		{
			"doubleSided":true,
			"name":"yellow",
			"pbrMetallicRoughness":{
				"baseColorFactor":[
					0.712675929069519,
					0.8000000715255737,
					0.12411656975746155,
					1
				],
				"metallicFactor":0,
				"roughnessFactor":0.5
			}
		}
	],
	"meshes":[
		{
			"name":"Cylinder",
			"primitives":[
				{
					"attributes":{
						"POSITION":0,
						"NORMAL":1,
						"TEXCOORD_0":2
					},
					"indices":3,
					"material":0
				}
			]
		},
		{
			"name":"Cube.002",
			"primitives":[
				{
					"attributes":{
						"POSITION":4,
						"NORMAL":5,
						"TEXCOORD_0":6
					},
					"indices":7,
					"material":1
				},
				{
					"attributes":{
						"POSITION":8,
						"NORMAL":9,
						"TEXCOORD_0":10
					},
					"indices":11,
					"material":2
				}
			]
		},
		{
			"name":"Cube.018",
			"primitives":[
				{
					"attributes":{
						"POSITION":12,
						"NORMAL":13,
						"TEXCOORD_0":14
					},
					"indices":15,
					"material":0
				}
			]
		},
		{
			"name":"Cube.017",
			"primitives":[
				{
					"attributes":{
						"POSITION":16,
						"NORMAL":17,
						"TEXCOORD_0":18
					},
					"indices":15,
					"material":0
				}
			]
		},
		{
			"name":"Cube.016",
			"primitives":[
				{
					"attributes":{
						"POSITION":19,
						"NORMAL":20,
						"TEXCOORD_0":21
					},
					"indices":15,
					"material":0
				}
			]
		},
		{
			"name":"Cube.015",
			"primitives":[
				{
					"attributes":{
						"POSITION":22,
						"NORMAL":23,
						"TEXCOORD_0":24
					},
					"indices":15,
					"material":0
				}
			]
		},
		{
			"name":"Cube.014",
			"primitives":[
				{
					"attributes":{
						"POSITION":25,
						"NORMAL":26,
						"TEXCOORD_0":27
					},
					"indices":15,
					"material":0
				}
			]
		},
		{
			"name":"Cube.013",
			"primitives":[
				{
					"attributes":{
						"POSITION":28,
						"NORMAL":29,
						"TEXCOORD_0":30
					},
					"indices":15,
					"material":0
				}
			]
		},
		{
			"name":"Cube.012",
			"primitives":[
				{
					"attributes":{
						"POSITION":31,
						"NORMAL":32,
						"TEXCOORD_0":33
					},
					"indices":15,
					"material":0
				}
			]
		},
		{
			"name":"Cube.011",
			"primitives":[
				{
					"attributes":{
						"POSITION":34,
						"NORMAL":35,
						"TEXCOORD_0":36
					},
					"indices":15,
					"material":0
				}
			]
		},
		{
			"name":"Cube.010",
			"primitives":[
				{
					"attributes":{
						"POSITION":37,
						"NORMAL":38,
						"TEXCOORD_0":39
					},
					"indices":15,
					"material":0
				}
			]
		},
		{
			"name":"Cube.009",
			"primitives":[
				{
					"attributes":{
						"POSITION":40,
						"NORMAL":41,
						"TEXCOORD_0":42
					},
					"indices":15,
					"material":0
				}
			]
		},
		{
			"name":"Cube.008",
			"primitives":[
				{
					"attributes":{
						"POSITION":43,
						"NORMAL":44,
						"TEXCOORD_0":45
					},
					"indices":15,
					"material":0
				}
			]
		},
		{
			"name":"Cube.003",
			"primitives":[
				{
					"attributes":{
						"POSITION":46,
						"NORMAL":47,
						"TEXCOORD_0":48
					},
					"indices":15,
					"material":0
				}
			]
		}
	],
	"accessors":[
		{
			"bufferView":0,
			"componentType":5126,
			"count":52,
			"max":[
				1.01183021068573,
				1,
				1.01183021068573
			],
			"min":[
				-1.01183021068573,
				-1,
				-1.01183021068573
			],
			"type":"VEC3"
		},
		{
			"bufferView":1,
			"componentType":5126,
			"count":52,
			"type":"VEC3"
		},
		{
			"bufferView":2,
			"componentType":5126,
			"count":52,
			"type":"VEC2"
		},
		{
			"bufferView":3,
			"componentType":5123,
			"count":90,
			"type":"SCALAR"
		},
		{
			"bufferView":4,
			"componentType":5126,
			"count":448,
			"max":[
				1.2090469598770142,
				0.4257381558418274,
				1.209046721458435
			],
			"min":[
				-1.2090469598770142,
				-0.8395062685012817,
				-1.2090471982955933
			],
			"type":"VEC3"
		},
		{
			"bufferView":5,
			"componentType":5126,
			"count":448,
			"type":"VEC3"
		},
		{
			"bufferView":6,
			"componentType":5126,
			"count":448,
			"type":"VEC2"
		},
		{
			"bufferView":7,
			"componentType":5123,
			"count":672,
			"type":"SCALAR"
		},
		{
			"bufferView":8,
			"componentType":5126,
			"count":128,
			"max":[
				0.25032421946525574,
				0.13092464208602905,
				0.2503242492675781
			],
			"min":[
				-0.2503243088722229,
				-0.0934474989771843,
				-0.25032421946525574
			],
			"type":"VEC3"
		},
		{
			"bufferView":9,
			"componentType":5126,
			"count":128,
			"type":"VEC3"
		},
		{
			"bufferView":10,
			"componentType":5126,
			"count":128,
			"type":"VEC2"
		},
		{
			"bufferView":11,
			"componentType":5123,
			"count":192,
			"type":"SCALAR"
		},
		{
			"bufferView":12,
			"componentType":5126,
			"count":110,
			"max":[
				1.5536658763885498,
				1.2266205549240112,
				0.8922913670539856
			],
			"min":[
				-1.8778536319732666,
				-0.966017484664917,
				-0.898718535900116
			],
			"type":"VEC3"
		},
		{
			"bufferView":13,
			"componentType":5126,
			"count":110,
			"type":"VEC3"
		},
		{
			"bufferView":14,
			"componentType":5126,
			"count":110,
			"type":"VEC2"
		},
		{
			"bufferView":15,
			"componentType":5123,
			"count":132,
			"type":"SCALAR"
		},
		{
			"bufferView":16,
			"componentType":5126,
			"count":110,
			"max":[
				1.5536658763885498,
				1.2266205549240112,
				0.8922913670539856
			],
			"min":[
				-1.8778536319732666,
				-0.966017484664917,
				-0.898718535900116
			],
			"type":"VEC3"
		},
		{
			"bufferView":17,
			"componentType":5126,
			"count":110,
			"type":"VEC3"
		},
		{
			"bufferView":18,
			"componentType":5126,
			"count":110,
			"type":"VEC2"
		},
		{
			"bufferView":19,
			"componentType":5126,
			"count":110,
			"max":[
				1.5536658763885498,
				1.2266205549240112,
				0.8922913670539856
			],
			"min":[
				-1.8778536319732666,
				-0.966017484664917,
				-0.898718535900116
			],
			"type":"VEC3"
		},
		{
			"bufferView":20,
			"componentType":5126,
			"count":110,
			"type":"VEC3"
		},
		{
			"bufferView":21,
			"componentType":5126,
			"count":110,
			"type":"VEC2"
		},
		{
			"bufferView":22,
			"componentType":5126,
			"count":110,
			"max":[
				1.5536658763885498,
				1.2266205549240112,
				0.8922913670539856
			],
			"min":[
				-1.8778536319732666,
				-0.966017484664917,
				-0.898718535900116
			],
			"type":"VEC3"
		},
		{
			"bufferView":23,
			"componentType":5126,
			"count":110,
			"type":"VEC3"
		},
		{
			"bufferView":24,
			"componentType":5126,
			"count":110,
			"type":"VEC2"
		},
		{
			"bufferView":25,
			"componentType":5126,
			"count":110,
			"max":[
				1.5536658763885498,
				1.2266205549240112,
				0.8922913670539856
			],
			"min":[
				-1.8778536319732666,
				-0.966017484664917,
				-0.898718535900116
			],
			"type":"VEC3"
		},
		{
			"bufferView":26,
			"componentType":5126,
			"count":110,
			"type":"VEC3"
		},
		{
			"bufferView":27,
			"componentType":5126,
			"count":110,
			"type":"VEC2"
		},
		{
			"bufferView":28,
			"componentType":5126,
			"count":110,
			"max":[
				1.5536658763885498,
				1.2266205549240112,
				0.8922913670539856
			],
			"min":[
				-1.8778536319732666,
				-0.966017484664917,
				-0.898718535900116
			],
			"type":"VEC3"
		},
		{
			"bufferView":29,
			"componentType":5126,
			"count":110,
			"type":"VEC3"
		},
		{
			"bufferView":30,
			"componentType":5126,
			"count":110,
			"type":"VEC2"
		},
		{
			"bufferView":31,
			"componentType":5126,
			"count":110,
			"max":[
				1.5536658763885498,
				1.2266205549240112,
				0.8922913670539856
			],
			"min":[
				-1.8778536319732666,
				-0.966017484664917,
				-0.898718535900116
			],
			"type":"VEC3"
		},
		{
			"bufferView":32,
			"componentType":5126,
			"count":110,
			"type":"VEC3"
		},
		{
			"bufferView":33,
			"componentType":5126,
			"count":110,
			"type":"VEC2"
		},
		{
			"bufferView":34,
			"componentType":5126,
			"count":110,
			"max":[
				1.5536658763885498,
				1.2266205549240112,
				0.8922913670539856
			],
			"min":[
				-1.8778536319732666,
				-0.966017484664917,
				-0.898718535900116
			],
			"type":"VEC3"
		},
		{
			"bufferView":35,
			"componentType":5126,
			"count":110,
			"type":"VEC3"
		},
		{
			"bufferView":36,
			"componentType":5126,
			"count":110,
			"type":"VEC2"
		},
		{
			"bufferView":37,
			"componentType":5126,
			"count":110,
			"max":[
				1.5536658763885498,
				1.2266205549240112,
				0.8922913670539856
			],
			"min":[
				-1.8778536319732666,
				-0.966017484664917,
				-0.898718535900116
			],
			"type":"VEC3"
		},
		{
			"bufferView":38,
			"componentType":5126,
			"count":110,
			"type":"VEC3"
		},
		{
			"bufferView":39,
			"componentType":5126,
			"count":110,
			"type":"VEC2"
		},
		{
			"bufferView":40,
			"componentType":5126,
			"count":110,
			"max":[
				1.5536658763885498,
				1.2266205549240112,
				0.8922913670539856
			],
			"min":[
				-1.8778536319732666,
				-0.966017484664917,
				-0.898718535900116
			],
			"type":"VEC3"
		},
		{
			"bufferView":41,
			"componentType":5126,
			"count":110,
			"type":"VEC3"
		},
		{
			"bufferView":42,
			"componentType":5126,
			"count":110,
			"type":"VEC2"
		},
		{
			"bufferView":43,
			"componentType":5126,
			"count":110,
			"max":[
				1.5536658763885498,
				1.2266205549240112,
				0.8922913670539856
			],
			"min":[
				-1.8778536319732666,
				-0.966017484664917,
				-0.898718535900116
			],
			"type":"VEC3"
		},
		{
			"bufferView":44,
			"componentType":5126,
			"count":110,
			"type":"VEC3"
		},
		{
			"bufferView":45,
			"componentType":5126,
			"count":110,
			"type":"VEC2"
		},
		{
			"bufferView":46,
			"componentType":5126,
			"count":110,
			"max":[
				1.5536658763885498,
				1.2266205549240112,
				0.8922913670539856
			],
			"min":[
				-1.8778536319732666,
				-0.966017484664917,
				-0.898718535900116
			],
			"type":"VEC3"
		},
		{
			"bufferView":47,
			"componentType":5126,
			"count":110,
			"type":"VEC3"
		},
		{
			"bufferView":48,
			"componentType":5126,
			"count":110,
			"type":"VEC2"
		}
	],
	"bufferViews":[
		{
			"buffer":0,
			"byteLength":624,
			"byteOffset":0,
			"target":34962
		},
		{
			"buffer":0,
			"byteLength":624,
			"byteOffset":624,
			"target":34962
		},
		{
			"buffer":0,
			"byteLength":416,
			"byteOffset":1248,
			"target":34962
		},
		{
			"buffer":0,
			"byteLength":180,
			"byteOffset":1664,
			"target":34963
		},
		{
			"buffer":0,
			"byteLength":5376,
			"byteOffset":1844,
			"target":34962
		},
		{
			"buffer":0,
			"byteLength":5376,
			"byteOffset":7220,
			"target":34962
		},
		{
			"buffer":0,
			"byteLength":3584,
			"byteOffset":12596,
			"target":34962
		},
		{
			"buffer":0,
			"byteLength":1344,
			"byteOffset":16180,
			"target":34963
		},
		{
			"buffer":0,
			"byteLength":1536,
			"byteOffset":17524,
			"target":34962
		},
		{
			"buffer":0,
			"byteLength":1536,
			"byteOffset":19060,
			"target":34962
		},
		{
			"buffer":0,
			"byteLength":1024,
			"byteOffset":20596,
			"target":34962
		},
		{
			"buffer":0,
			"byteLength":384,
			"byteOffset":21620,
			"target":34963
		},
		{
			"buffer":0,
			"byteLength":1320,
			"byteOffset":22004,
			"target":34962
		},
		{
			"buffer":0,
			"byteLength":1320,
			"byteOffset":23324,
			"target":34962
		},
		{
			"buffer":0,
			"byteLength":880,
			"byteOffset":24644,
			"target":34962
		},
		{
			"buffer":0,
			"byteLength":264,
			"byteOffset":25524,
			"target":34963
		},
		{
			"buffer":0,
			"byteLength":1320,
			"byteOffset":25788,
			"target":34962
		},
		{
			"buffer":0,
			"byteLength":1320,
			"byteOffset":27108,
			"target":34962
		},
		{
			"buffer":0,
			"byteLength":880,
			"byteOffset":28428,
			"target":34962
		},
		{
			"buffer":0,
			"byteLength":1320,
			"byteOffset":29308,
			"target":34962
		},
		{
			"buffer":0,
			"byteLength":1320,
			"byteOffset":30628,
			"target":34962
		},
		{
			"buffer":0,
			"byteLength":880,
			"byteOffset":31948,
			"target":34962
		},
		{
			"buffer":0,
			"byteLength":1320,
			"byteOffset":32828,
			"target":34962
		},
		{
			"buffer":0,
			"byteLength":1320,
			"byteOffset":34148,
			"target":34962
		},
		{
			"buffer":0,
			"byteLength":880,
			"byteOffset":35468,
			"target":34962
		},
		{
			"buffer":0,
			"byteLength":1320,
			"byteOffset":36348,
			"target":34962
		},
		{
			"buffer":0,
			"byteLength":1320,
			"byteOffset":37668,
			"target":34962
		},
		{
			"buffer":0,
			"byteLength":880,
			"byteOffset":38988,
			"target":34962
		},
		{
			"buffer":0,
			"byteLength":1320,
			"byteOffset":39868,
			"target":34962
		},
		{
			"buffer":0,
			"byteLength":1320,
			"byteOffset":41188,
			"target":34962
		},
		{
			"buffer":0,
			"byteLength":880,
			"byteOffset":42508,
			"target":34962
		},
		{
			"buffer":0,
			"byteLength":1320,
			"byteOffset":43388,
			"target":34962
		},
		{
			"buffer":0,
			"byteLength":1320,
			"byteOffset":44708,
			"target":34962
		},
		{
			"buffer":0,
			"byteLength":880,
			"byteOffset":46028,
			"target":34962
		},
		{
			"buffer":0,
			"byteLength":1320,
			"byteOffset":46908,
			"target":34962
		},
		{
			"buffer":0,
			"byteLength":1320,
			"byteOffset":48228,
			"target":34962
		},
		{
			"buffer":0,
			"byteLength":880,
			"byteOffset":49548,
			"target":34962
		},
		{
			"buffer":0,
			"byteLength":1320,
			"byteOffset":50428,
			"target":34962
		},
		{
			"buffer":0,
			"byteLength":1320,
			"byteOffset":51748,
			"target":34962
		},
		{
			"buffer":0,
			"byteLength":880,
			"byteOffset":53068,
			"target":34962
		},
		{
			"buffer":0,
			"byteLength":1320,
			"byteOffset":53948,
			"target":34962
		},
		{
			"buffer":0,
			"byteLength":1320,
			"byteOffset":55268,
			"target":34962
		},
		{
			"buffer":0,
			"byteLength":880,
			"byteOffset":56588,
			"target":34962
		},
		{
			"buffer":0,
			"byteLength":1320,
			"byteOffset":57468,
			"target":34962
		},
		{
			"buffer":0,
			"byteLength":1320,
			"byteOffset":58788,
			"target":34962
		},
		{
			"buffer":0,
			"byteLength":880,
			"byteOffset":60108,
			"target":34962
		},
		{
			"buffer":0,
			"byteLength":1320,
			"byteOffset":60988,
			"target":34962
		},
		{
			"buffer":0,
			"byteLength":1320,
			"byteOffset":62308,
			"target":34962
		},
		{
			"buffer":0,
			"byteLength":880,
			"byteOffset":63628,
			"target":34962
		}
	],
	"buffers":[
		{
			"byteLength":64508,
			"uri":"data:application/octet-stream;base64,"
		}
	]
}
