{
	"asset":{
		"generator":"Khronos glTF Blender I/O v3.6.28",
		"version":"2.0"
	},
	"scene":0,
	"scenes":[
		{
			"name":"Scene",
			"nodes":[
				0,
				1,
				2,
				3,
				4,
				5,
				6,
				7,
				8,
				9,
				10,
				11,
				12,
				13,
				14
			]
		}
	],
	"nodes":[
		{
			"mesh":0,
			"name":"Gamepad",
			"scale":[
				3.6173524856567383,
				5.200000286102295,
				18.200000762939453
			],
			"translation":[
				-1.038067102432251,
				6.650758743286133,
				2.1796669960021973
			]
		},
		{
			"mesh":1,
			"name":"Cube",
			"rotation":[
				0.08715574443340302,
				0,
				0,
				0.9961947202682495
			],
			"scale":[
				0.42657843232154846,
				0.7483178377151489,
				1.7885839939117432
			],
			"translation":[
				-0.7431814670562744,
				10.743346214294434,
				11.515345573425293
			]
		},
		{
			"mesh":2,
			"name":"Cube.001",
			"rotation":[
				0.08715574443340302,
				0,
				0,
				0.9961947202682495
			],
			"scale":[
				1.0020321607589722,
				1.5185296535491943,
				1.7885839939117432
			],
			"translation":[
				-2.3286681175231934,
				9.77025032043457,
				11.50275707244873
			]
		},
		{
			"mesh":3,
			"name":"Cube.002",
			"rotation":[
				-0.08715574443340302,
				0,
				0,
				0.9961947202682495
			],
			"scale":[
				1.0020321607589722,
				1.5185296535491943,
				1.7885839939117432
			],
			"translation":[
				-2.3286681175231934,
				9.77025032043457,
				-11.653481483459473
			]
		},
		{
			"mesh":4,
			"name":"Cube.003",
			"rotation":[
				-0.08715574443340302,
				0,
				0,
				0.9961947202682495
			],
			"scale":[
				0.42657843232154846,
				0.7483178377151489,
				1.7885839939117432
			],
			"translation":[
				-0.7431814670562744,
				10.743346214294434,
				-11.640885353088379
			]
		},
		{
			"mesh":5,
			"name":"Cube.004",
			"rotation":[
				0,
				0,
				-0.7071068286895752,
				0.7071067690849304
			],
			"scale":[
				1.5600001811981201,
				1.5600001811981201,
				1.5600001811981201
			],
			"translation":[
				-0.5384128093719482,
				4.3031206130981445,
				3.9939064979553223
			]
		},
		{
			"mesh":6,
			"name":"Cube.005",
			"rotation":[
				0,
				0,
				-0.7071068286895752,
				0.7071067690849304
			],
			"scale":[
				1.5600001811981201,
				1.5600001811981201,
				1.5600001811981201
			],
			"translation":[
				-0.5384128093719482,
				4.3031206130981445,
				-4.055299282073975
			]
		},
		{
			"mesh":7,
			"name":"Cube.006",
			"rotation":[
				0,
				0,
				-0.7071068286895752,
				0.7071068286895752
			],
			"scale":[
				0.6240000128746033,
				0.6240000128746033,
				0.6240000128746033
			],
			"translation":[
				1.151462197303772,
				7.459351062774658,
				-9.340653419494629
			]
		},
		{
			"mesh":8,
			"name":"Cube.007",
			"rotation":[
				0,
				0,
				-0.7071068286895752,
				0.7071068286895752
			],
			"scale":[
				0.6240000128746033,
				0.6240000128746033,
				0.6240000128746033
			],
			"translation":[
				1.151462197303772,
				4.946351051330566,
				-9.313618659973145
			]
		},
		{
			"mesh":9,
			"name":"Cube.008",
			"rotation":[
				0,
				0,
				-0.7071068286895752,
				0.7071068286895752
			],
			"scale":[
				0.6240000128746033,
				0.6240000128746033,
				0.6240000128746033
			],
			"translation":[
				1.151462197303772,
				6.213400363922119,
				-10.538655281066895
			]
		},
		{
			"mesh":10,
			"name":"Cube.009",
			"rotation":[
				0,
				0,
				-0.7071068286895752,
				0.7071068286895752
			],
			"scale":[
				0.6240000128746033,
				0.6240000128746033,
				0.6240000128746033
			],
			"translation":[
				1.151462197303772,
				6.213400363922119,
				-8.143208503723145
			]
		},
		{
			"mesh":11,
			"name":"Cube.010",
			"rotation":[
				0,
				0,
				-0.7071068286895752,
				0.7071067690849304
			],
			"scale":[
				0.624000072479248,
				0.624000072479248,
				0.624000072479248
			],
			"translation":[
				1.8400306701660156,
				5.228184700012207,
				9.724532127380371
			]
		},
		{
			"mesh":12,
			"name":"Cube.011",
			"rotation":[
				-0.7071068286895752,
				-0.7071067690849304,
				0,
				2.6692539734085585e-08
			],
			"scale":[
				0.624000072479248,
				0.624000072479248,
				0.624000072479248
			],
			"translation":[
				1.8400306701660156,
				7.836687088012695,
				9.72778606414795
			]
		},
		{
			"mesh":13,
			"name":"Cube.012",
			"rotation":[
				0.5000001788139343,
				0.4999998211860657,
				-0.5,
				0.5000001192092896
			],
			"scale":[
				0.624000072479248,
				0.624000072479248,
				0.624000072479248
			],
			"translation":[
				1.8400306701660156,
				6.538013458251953,
				8.315550804138184
			]
		},
		{
			"mesh":14,
			"name":"Cube.013",
			"rotation":[
				-0.5000000596046448,
				-0.4999999403953552,
				-0.4999999403953552,
				0.5000002384185791
			],
			"scale":[
				0.624000072479248,
				0.624000072479248,
				0.624000072479248
			],
			"translation":[
				1.8400306701660156,
				6.538013458251953,
				11.121699333190918
			]
		}
	],
	"materials":[
		{
			"doubleSided":true,
			"name":"controller",
			"pbrMetallicRoughness":{
				"baseColorFactor":[
					0.02197912335395813,
					0.02197912335395813,
					0.02197912335395813,
					1
				],
				"metallicFactor":0,
				"roughnessFactor":0.5
			}
		},
		{
			"doubleSided":true,
			"name":"Gameboy Directional",
			"pbrMetallicRoughness":{
				"baseColorFactor":[
					0.13286322355270386,
					0.13286322355270386,
					0.13286322355270386,
					1
				],
				"metallicFactor":0,
				"roughnessFactor":0.5
			}
		},
		{
			"doubleSided":true,
			"name":"green button",
			"pbrMetallicRoughness":{
				"baseColorFactor":[
					0.08887934684753418,
					0.8000000715255737,
					0.05126991122961044,
					1
				],
				"metallicFactor":0,
				"roughnessFactor":0.5
			}
		},
		{
			"doubleSided":true,
			"name":"blue button",
			"pbrMetallicRoughness":{
				"baseColorFactor":[
					0.04044796898961067,
					0.21383990347385406,
					0.8000000715255737,
					1
				],
				"metallicFactor":0,
				"roughnessFactor":0.5
			}
		},
		{
			"doubleSided":true,
			"name":"red button",
			"pbrMetallicRoughness":{
				"baseColorFactor":[
					0.8000000715255737,
					0.03461647778749466,
					0.031039992347359657,
					1
				],
				"metallicFactor":0,
				"roughnessFactor":0.5
			}
		},
		{
			"doubleSided":true,
			"name":"pink button",
			"pbrMetallicRoughness":{
				"baseColorFactor":[
					0.8000000715255737,
					0.12038041651248932,
					0.6602240204811096,
					1
				],
				"metallicFactor":0,
				"roughnessFactor":0.5
			}
		}
	],
	"meshes":[
		{
			"name":"Cube",
			"primitives":[
				{
					"attributes":{
						"POSITION":0,
						"NORMAL":1,
						"TEXCOORD_0":2
					},
					"indices":3,
					"material":0
				}
			]
		},
		{
			"name":"Cube.002",
			"primitives":[
				{
					"attributes":{
						"POSITION":4,
						"NORMAL":5,
						"TEXCOORD_0":6
					},
					"indices":7,
					"material":1
				}
			]
		},
		{
			"name":"Cube.003",
			"primitives":[
				{
					"attributes":{
						"POSITION":8,
						"NORMAL":9,
						"TEXCOORD_0":10
					},
					"indices":11,
					"material":1
				}
			]
		},
		{
			"name":"Cube.004",
			"primitives":[
				{
					"attributes":{
						"POSITION":12,
						"NORMAL":13,
						"TEXCOORD_0":14
					},
					"indices":11,
					"material":1
				}
			]
		},
		{
			"name":"Cube.005",
			"primitives":[
				{
					"attributes":{
						"POSITION":15,
						"NORMAL":16,
						"TEXCOORD_0":17
					},
					"indices":7,
					"material":1
				}
			]
		},
		{
			"name":"Cube.006",
			"primitives":[
				{
					"attributes":{
						"POSITION":18,
						"NORMAL":19,
						"TEXCOORD_0":20
					},
					"indices":21,
					"material":1
				}
			]
		},
		{
			"name":"Cube.007",
			"primitives":[
				{
					"attributes":{
						"POSITION":22,
						"NORMAL":23,
						"TEXCOORD_0":24
					},
					"indices":21,
					"material":1
				}
			]
		},
		{
			"name":"Cube.008",
			"primitives":[
				{
					"attributes":{
						"POSITION":25,
						"NORMAL":26,
						"TEXCOORD_0":27
					},
					"indices":21,
					"material":2
				}
			]
		},
		{
			"name":"Cube.009",
			"primitives":[
				{
					"attributes":{
						"POSITION":28,
						"NORMAL":29,
						"TEXCOORD_0":30
					},
					"indices":21,
					"material":3
				}
			]
		},
		{
			"name":"Cube.010",
			"primitives":[
				{
					"attributes":{
						"POSITION":31,
						"NORMAL":32,
						"TEXCOORD_0":33
					},
					"indices":21,
					"material":4
				}
			]
		},
		{
			"name":"Cube.011",
			"primitives":[
				{
					"attributes":{
						"POSITION":34,
						"NORMAL":35,
						"TEXCOORD_0":36
					},
					"indices":21,
					"material":5
				}
			]
		},
		{
			"name":"Cube.012",
			"primitives":[
				{
					"attributes":{
						"POSITION":37,
						"NORMAL":38,
						"TEXCOORD_0":39
					},
					"indices":40,
					"material":1
				}
			]
		},
		{
			"name":"Cube.013",
			"primitives":[
				{
					"attributes":{
						"POSITION":41,
						"NORMAL":42,
						"TEXCOORD_0":43
					},
					"indices":40,
					"material":1
				}
			]
		},
		{
			"name":"Cube.014",
			"primitives":[
				{
					"attributes":{
						"POSITION":44,
						"NORMAL":45,
						"TEXCOORD_0":46
					},
					"indices":40,
					"material":1
				}
			]
		},
		{
			"name":"Cube.015",
			"primitives":[
				{
					"attributes":{
						"POSITION":47,
						"NORMAL":48,
						"TEXCOORD_0":49
					},
					"indices":40,
					"material":1
				}
			]
		}
	],
	"accessors":[
		{
			"bufferView":0,
			"componentType":5126,
			"count":5632,
			"max":[
				0.9166668653488159,
				0.9129387736320496,
				0.7185204029083252
			],
			"min":[
				-0.9166667461395264,
				-2.2885591983795166,
				-0.9618024826049805
			],
			"type":"VEC3"
		},
		{
			"bufferView":1,
			"componentType":5126,
			"count":5632,
			"type":"VEC3"
		},
		{
			"bufferView":2,
			"componentType":5126,
			"count":5632,
			"type":"VEC2"
		},
		{
			"bufferView":3,
			"componentType":5123,
			"count":8448,
			"type":"SCALAR"
		},
		{
			"bufferView":4,
			"componentType":5126,
			"count":384,
			"max":[
				0.8395062685012817,
				0.8395062685012817,
				0.8395062685012817
			],
			"min":[
				-0.8395062685012817,
				-0.8395062685012817,
				-0.8395062685012817
			],
			"type":"VEC3"
		},
		{
			"bufferView":5,
			"componentType":5126,
			"count":384,
			"type":"VEC3"
		},
		{
			"bufferView":6,
			"componentType":5126,
			"count":384,
			"type":"VEC2"
		},
		{
			"bufferView":7,
			"componentType":5123,
			"count":576,
			"type":"SCALAR"
		},
		{
			"bufferView":8,
			"componentType":5126,
			"count":640,
			"max":[
				0.9387755393981934,
				0.9736241102218628,
				0.9166667461395264
			],
			"min":[
				-0.5838568210601807,
				-0.8658822774887085,
				-0.9166666865348816
			],
			"type":"VEC3"
		},
		{
			"bufferView":9,
			"componentType":5126,
			"count":640,
			"type":"VEC3"
		},
		{
			"bufferView":10,
			"componentType":5126,
			"count":640,
			"type":"VEC2"
		},
		{
			"bufferView":11,
			"componentType":5123,
			"count":960,
			"type":"SCALAR"
		},
		{
			"bufferView":12,
			"componentType":5126,
			"count":640,
			"max":[
				0.9387755393981934,
				0.9736241102218628,
				0.9166667461395264
			],
			"min":[
				-0.5838568210601807,
				-0.8658822774887085,
				-0.9166666865348816
			],
			"type":"VEC3"
		},
		{
			"bufferView":13,
			"componentType":5126,
			"count":640,
			"type":"VEC3"
		},
		{
			"bufferView":14,
			"componentType":5126,
			"count":640,
			"type":"VEC2"
		},
		{
			"bufferView":15,
			"componentType":5126,
			"count":384,
			"max":[
				0.8395062685012817,
				0.8395062685012817,
				0.8395062685012817
			],
			"min":[
				-0.8395062685012817,
				-0.8395062685012817,
				-0.8395062685012817
			],
			"type":"VEC3"
		},
		{
			"bufferView":16,
			"componentType":5126,
			"count":384,
			"type":"VEC3"
		},
		{
			"bufferView":17,
			"componentType":5126,
			"count":384,
			"type":"VEC2"
		},
		{
			"bufferView":18,
			"componentType":5126,
			"count":2560,
			"max":[
				1.083873987197876,
				2.116354465484619,
				1.0838712453842163
			],
			"min":[
				-1.083873987197876,
				0.7970415353775024,
				-1.0838767290115356
			],
			"type":"VEC3"
		},
		{
			"bufferView":19,
			"componentType":5126,
			"count":2560,
			"type":"VEC3"
		},
		{
			"bufferView":20,
			"componentType":5126,
			"count":2560,
			"type":"VEC2"
		},
		{
			"bufferView":21,
			"componentType":5123,
			"count":3840,
			"type":"SCALAR"
		},
		{
			"bufferView":22,
			"componentType":5126,
			"count":2560,
			"max":[
				1.083873987197876,
				2.116354465484619,
				1.0838712453842163
			],
			"min":[
				-1.083873987197876,
				0.7970415353775024,
				-1.0838767290115356
			],
			"type":"VEC3"
		},
		{
			"bufferView":23,
			"componentType":5126,
			"count":2560,
			"type":"VEC3"
		},
		{
			"bufferView":24,
			"componentType":5126,
			"count":2560,
			"type":"VEC2"
		},
		{
			"bufferView":25,
			"componentType":5126,
			"count":2560,
			"max":[
				1.083873987197876,
				2.116354465484619,
				1.0838712453842163
			],
			"min":[
				-1.083873987197876,
				0.7970415353775024,
				-1.0838767290115356
			],
			"type":"VEC3"
		},
		{
			"bufferView":26,
			"componentType":5126,
			"count":2560,
			"type":"VEC3"
		},
		{
			"bufferView":27,
			"componentType":5126,
			"count":2560,
			"type":"VEC2"
		},
		{
			"bufferView":28,
			"componentType":5126,
			"count":2560,
			"max":[
				1.083873987197876,
				2.116354465484619,
				1.0838712453842163
			],
			"min":[
				-1.083873987197876,
				0.7970415353775024,
				-1.0838767290115356
			],
			"type":"VEC3"
		},
		{
			"bufferView":29,
			"componentType":5126,
			"count":2560,
			"type":"VEC3"
		},
		{
			"bufferView":30,
			"componentType":5126,
			"count":2560,
			"type":"VEC2"
		},
		{
			"bufferView":31,
			"componentType":5126,
			"count":2560,
			"max":[
				1.083873987197876,
				2.116354465484619,
				1.0838712453842163
			],
			"min":[
				-1.083873987197876,
				0.7970415353775024,
				-1.0838767290115356
			],
			"type":"VEC3"
		},
		{
			"bufferView":32,
			"componentType":5126,
			"count":2560,
			"type":"VEC3"
		},
		{
			"bufferView":33,
			"componentType":5126,
			"count":2560,
			"type":"VEC2"
		},
		{
			"bufferView":34,
			"componentType":5126,
			"count":2560,
			"max":[
				1.083873987197876,
				2.116354465484619,
				1.0838712453842163
			],
			"min":[
				-1.083873987197876,
				0.7970415353775024,
				-1.0838767290115356
			],
			"type":"VEC3"
		},
		{
			"bufferView":35,
			"componentType":5126,
			"count":2560,
			"type":"VEC3"
		},
		{
			"bufferView":36,
			"componentType":5126,
			"count":2560,
			"type":"VEC2"
		},
		{
			"bufferView":37,
			"componentType":5126,
			"count":689,
			"max":[
				1,
				1,
				1
			],
			"min":[
				-1.911941647529602,
				-1,
				-1
			],
			"type":"VEC3"
		},
		{
			"bufferView":38,
			"componentType":5126,
			"count":689,
			"type":"VEC3"
		},
		{
			"bufferView":39,
			"componentType":5126,
			"count":689,
			"type":"VEC2"
		},
		{
			"bufferView":40,
			"componentType":5123,
			"count":1050,
			"type":"SCALAR"
		},
		{
			"bufferView":41,
			"componentType":5126,
			"count":689,
			"max":[
				1,
				1,
				1
			],
			"min":[
				-1.911941647529602,
				-1,
				-1
			],
			"type":"VEC3"
		},
		{
			"bufferView":42,
			"componentType":5126,
			"count":689,
			"type":"VEC3"
		},
		{
			"bufferView":43,
			"componentType":5126,
			"count":689,
			"type":"VEC2"
		},
		{
			"bufferView":44,
			"componentType":5126,
			"count":689,
			"max":[
				1,
				1,
				1
			],
			"min":[
				-1.911941647529602,
				-1,
				-1
			],
			"type":"VEC3"
		},
		{
			"bufferView":45,
			"componentType":5126,
			"count":689,
			"type":"VEC3"
		},
		{
			"bufferView":46,
			"componentType":5126,
			"count":689,
			"type":"VEC2"
		},
		{
			"bufferView":47,
			"componentType":5126,
			"count":689,
			"max":[
				1,
				1,
				1
			],
			"min":[
				-1.911941647529602,
				-1,
				-1
			],
			"type":"VEC3"
		},
		{
			"bufferView":48,
			"componentType":5126,
			"count":689,
			"type":"VEC3"
		},
		{
			"bufferView":49,
			"componentType":5126,
			"count":689,
			"type":"VEC2"
		}
	],
	"bufferViews":[
		{
			"buffer":0,
			"byteLength":67584,
			"byteOffset":0,
			"target":34962
		},
		{
			"buffer":0,
			"byteLength":67584,
			"byteOffset":67584,
			"target":34962
		},
		{
			"buffer":0,
			"byteLength":45056,
			"byteOffset":135168,
			"target":34962
		},
		{
			"buffer":0,
			"byteLength":16896,
			"byteOffset":180224,
			"target":34963
		},
		{
			"buffer":0,
			"byteLength":4608,
			"byteOffset":197120,
			"target":34962
		},
		{
			"buffer":0,
			"byteLength":4608,
			"byteOffset":201728,
			"target":34962
		},
		{
			"buffer":0,
			"byteLength":3072,
			"byteOffset":206336,
			"target":34962
		},
		{
			"buffer":0,
			"byteLength":1152,
			"byteOffset":209408,
			"target":34963
		},
		{
			"buffer":0,
			"byteLength":7680,
			"byteOffset":210560,
			"target":34962
		},
		{
			"buffer":0,
			"byteLength":7680,
			"byteOffset":218240,
			"target":34962
		},
		{
			"buffer":0,
			"byteLength":5120,
			"byteOffset":225920,
			"target":34962
		},
		{
			"buffer":0,
			"byteLength":1920,
			"byteOffset":231040,
			"target":34963
		},
		{
			"buffer":0,
			"byteLength":7680,
			"byteOffset":232960,
			"target":34962
		},
		{
			"buffer":0,
			"byteLength":7680,
			"byteOffset":240640,
			"target":34962
		},
		{
			"buffer":0,
			"byteLength":5120,
			"byteOffset":248320,
			"target":34962
		},
		{
			"buffer":0,
			"byteLength":4608,
			"byteOffset":253440,
			"target":34962
		},
		{
			"buffer":0,
			"byteLength":4608,
			"byteOffset":258048,
			"target":34962
		},
		{
			"buffer":0,
			"byteLength":3072,
			"byteOffset":262656,
			"target":34962
		},
		{
			"buffer":0,
			"byteLength":30720,
			"byteOffset":265728,
			"target":34962
		},
		{
			"buffer":0,
			"byteLength":30720,
			"byteOffset":296448,
			"target":34962
		},
		{
			"buffer":0,
			"byteLength":20480,
			"byteOffset":327168,
			"target":34962
		},
		{
			"buffer":0,
			"byteLength":7680,
			"byteOffset":347648,
			"target":34963
		},
		{
			"buffer":0,
			"byteLength":30720,
			"byteOffset":355328,
			"target":34962
		},
		{
			"buffer":0,
			"byteLength":30720,
			"byteOffset":386048,
			"target":34962
		},
		{
			"buffer":0,
			"byteLength":20480,
			"byteOffset":416768,
			"target":34962
		},
		{
			"buffer":0,
			"byteLength":30720,
			"byteOffset":437248,
			"target":34962
		},
		{
			"buffer":0,
			"byteLength":30720,
			"byteOffset":467968,
			"target":34962
		},
		{
			"buffer":0,
			"byteLength":20480,
			"byteOffset":498688,
			"target":34962
		},
		{
			"buffer":0,
			"byteLength":30720,
			"byteOffset":519168,
			"target":34962
		},
		{
			"buffer":0,
			"byteLength":30720,
			"byteOffset":549888,
			"target":34962
		},
		{
			"buffer":0,
			"byteLength":20480,
			"byteOffset":580608,
			"target":34962
		},
		{
			"buffer":0,
			"byteLength":30720,
			"byteOffset":601088,
			"target":34962
		},
		{
			"buffer":0,
			"byteLength":30720,
			"byteOffset":631808,
			"target":34962
		},
		{
			"buffer":0,
			"byteLength":20480,
			"byteOffset":662528,
			"target":34962
		},
		{
			"buffer":0,
			"byteLength":30720,
			"byteOffset":683008,
			"target":34962
		},
		{
			"buffer":0,
			"byteLength":30720,
			"byteOffset":713728,
			"target":34962
		},
		{
			"buffer":0,
			"byteLength":20480,
			"byteOffset":744448,
			"target":34962
		},
		{
			"buffer":0,
			"byteLength":8268,
			"byteOffset":764928,
			"target":34962
		},
		{
			"buffer":0,
			"byteLength":8268,
			"byteOffset":773196,
			"target":34962
		},
		{
			"buffer":0,
			"byteLength":5512,
			"byteOffset":781464,
			"target":34962
		},
		{
			"buffer":0,
			"byteLength":2100,
			"byteOffset":786976,
			"target":34963
		},
		{
			"buffer":0,
			"byteLength":8268,
			"byteOffset":789076,
			"target":34962
		},
		{
			"buffer":0,
			"byteLength":8268,
			"byteOffset":797344,
			"target":34962
		},
		{
			"buffer":0,
			"byteLength":5512,
			"byteOffset":805612,
			"target":34962
		},
		{
			"buffer":0,
			"byteLength":8268,
			"byteOffset":811124,
			"target":34962
		},
		{
			"buffer":0,
			"byteLength":8268,
			"byteOffset":819392,
			"target":34962
		},
		{
			"buffer":0,
			"byteLength":5512,
			"byteOffset":827660,
			"target":34962
		},
		{
			"buffer":0,
			"byteLength":8268,
			"byteOffset":833172,
			"target":34962
		},
		{
			"buffer":0,
			"byteLength":8268,
			"byteOffset":841440,
			"target":34962
		},
		{
			"buffer":0,
			"byteLength":5512,
			"byteOffset":849708,
			"target":34962
		}
	],
	"buffers":[
		{
			"byteLength":855220,
			"uri":"data:application/octet-stream;base64,"
		}
	]
}
