{
	"asset":{
		"generator":"Khronos glTF Blender I/O v3.6.28",
		"version":"2.0"
	},
	"scene":0,
	"scenes":[
		{
			"name":"Scene",
			"nodes":[
				0,
				1,
				2,
				3,
				4,
				5,
				6,
				7,
				8
			]
		}
	],
	"nodes":[
		{
			"mesh":0,
			"name":"Cube.018",
			"scale":[
				3,
				12,
				8
			],
			"translation":[
				0,
				12,
				-0.2286059856414795
			]
		},
		{
			"mesh":1,
			"name":"Cube.019",
			"rotation":[
				-0.5000000596046448,
				-0.4999999403953552,
				-0.49999988079071045,
				0.5000001788139343
			],
			"scale":[
				0.6837810277938843,
				0.6837810277938843,
				0.6837810277938843
			],
			"translation":[
				3.0823590755462646,
				9.044502258300781,
				5.060059547424316
			]
		},
		{
			"mesh":2,
			"name":"Cube.020",
			"rotation":[
				0.5000001192092896,
				0.4999997913837433,
				-0.4999999403953552,
				0.5000001192092896
			],
			"scale":[
				0.6837810277938843,
				0.6837810277938843,
				0.6837810277938843
			],
			"translation":[
				3.0823590755462646,
				9.044502258300781,
				1.9850780963897705
			]
		},
		{
			"mesh":3,
			"name":"Cube.021",
			"rotation":[
				-0.7071068286895752,
				-0.7071068286895752,
				0,
				2.6692539734085585e-08
			],
			"scale":[
				0.6837810277938843,
				0.6837810277938843,
				0.6837810277938843
			],
			"translation":[
				3.0823590755462646,
				10.4675931930542,
				3.532609224319458
			]
		},
		{
			"mesh":4,
			"name":"Cube.022",
			"rotation":[
				0,
				0,
				-0.7071068286895752,
				0.7071068286895752
			],
			"scale":[
				0.6837810277938843,
				0.6837810277938843,
				0.6837810277938843
			],
			"translation":[
				3.0823590755462646,
				7.609187126159668,
				3.5290539264678955
			]
		},
		{
			"mesh":5,
			"name":"Cylindre",
			"rotation":[
				0,
				0,
				-0.7071068286895752,
				0.7071068286895752
			],
			"translation":[
				2.5675768852233887,
				9.598441123962402,
				-5.290953636169434
			]
		},
		{
			"mesh":6,
			"name":"Cylindre.001",
			"rotation":[
				0,
				0,
				-0.7071068286895752,
				0.7071068286895752
			],
			"translation":[
				2.5675768852233887,
				8.050559997558594,
				-3.281233549118042
			]
		},
		{
			"mesh":7,
			"name":"Cube.023",
			"rotation":[
				0.18208490312099457,
				0,
				0,
				0.9832828044891357
			],
			"scale":[
				0.25,
				0.5,
				2.25
			],
			"translation":[
				2.9589035511016846,
				3.8550891876220703,
				2.3358166217803955
			]
		},
		{
			"mesh":8,
			"name":"Cube.024",
			"rotation":[
				0.18208490312099457,
				0,
				0,
				0.9832828044891357
			],
			"scale":[
				0.25,
				0.5,
				2.25
			],
			"translation":[
				2.9589035511016846,
				3.4795305728912354,
				-0.3554675579071045
			]
		}
	],
	"materials":[
		{
			"doubleSided":true,
			"name":"gameboy",
			"pbrMetallicRoughness":{
				"baseColorFactor":[
					0.4479783773422241,
					0.4220881164073944,
					0.31945300102233887,
					1
				],
				"metallicFactor":0,
				"roughnessFactor":0.5
			}
		},
		{
			"doubleSided":true,
			"name":"screen.001",
			"pbrMetallicRoughness":{
				"baseColorFactor":[
					0.042624734342098236,
					0.5070683360099792,
					0.028283121064305305,
					1
				],
				"metallicFactor":0,
				"roughnessFactor":0.5
			}
		},
		{
			"doubleSided":true,
			"name":"Gameboy Directional",
			"pbrMetallicRoughness":{
				"baseColorFactor":[
					0.13286322355270386,
					0.13286322355270386,
					0.13286322355270386,
					1
				],
				"metallicFactor":0,
				"roughnessFactor":0.5
			}
		},
		{
			"doubleSided":true,
			"name":"Button",
			"pbrMetallicRoughness":{
				"baseColorFactor":[
					0.6618631482124329,
					0.027004200965166092,
					0.0664832666516304,
					1
				],
				"metallicFactor":0,
				"roughnessFactor":0.5
			}
		}
	],
	"meshes":[
		{
			"name":"Cube.020",
			"primitives":[
				{
					"attributes":{
						"POSITION":0,
						"NORMAL":1,
						"TEXCOORD_0":2
					},
					"indices":3,
					"material":0
				},
				{
					"attributes":{
						"POSITION":4,
						"NORMAL":5,
						"TEXCOORD_0":6
					},
					"indices":7,
					"material":1
				}
			]
		},
		{
			"name":"Cube.021",
			"primitives":[
				{
					"attributes":{
						"POSITION":8,
						"NORMAL":9,
						"TEXCOORD_0":10
					},
					"indices":11,
					"material":2
				}
			]
		},
		{
			"name":"Cube.022",
			"primitives":[
				{
					"attributes":{
						"POSITION":12,
						"NORMAL":13,
						"TEXCOORD_0":14
					},
					"indices":11,
					"material":2
				}
			]
		},
		{
			"name":"Cube.023",
			"primitives":[
				{
					"attributes":{
						"POSITION":15,
						"NORMAL":16,
						"TEXCOORD_0":17
					},
					"indices":11,
					"material":2
				}
			]
		},
		{
			"name":"Cube.024",
			"primitives":[
				{
					"attributes":{
						"POSITION":18,
						"NORMAL":19,
						"TEXCOORD_0":20
					},
					"indices":11,
					"material":2
				}
			]
		},
		{
			"name":"Cylindre",
			"primitives":[
				{
					"attributes":{
						"POSITION":21,
						"NORMAL":22,
						"TEXCOORD_0":23
					},
					"indices":24,
					"material":3
				}
			]
		},
		{
			"name":"Cylindre.001",
			"primitives":[
				{
					"attributes":{
						"POSITION":25,
						"NORMAL":26,
						"TEXCOORD_0":27
					},
					"indices":24,
					"material":3
				}
			]
		},
		{
			"name":"Cube.025",
			"primitives":[
				{
					"attributes":{
						"POSITION":28,
						"NORMAL":29,
						"TEXCOORD_0":30
					},
					"indices":31,
					"material":2
				}
			]
		},
		{
			"name":"Cube.026",
			"primitives":[
				{
					"attributes":{
						"POSITION":32,
						"NORMAL":33,
						"TEXCOORD_0":34
					},
					"indices":31,
					"material":2
				}
			]
		}
	],
	"accessors":[
		{
			"bufferView":0,
			"componentType":5126,
			"count":498,
			"max":[
				1,
				1,
				1
			],
			"min":[
				-1,
				-1,
				-1
			],
			"type":"VEC3"
		},
		{
			"bufferView":1,
			"componentType":5126,
			"count":498,
			"type":"VEC3"
		},
		{
			"bufferView":2,
			"componentType":5126,
			"count":498,
			"type":"VEC2"
		},
		{
			"bufferView":3,
			"componentType":5123,
			"count":918,
			"type":"SCALAR"
		},
		{
			"bufferView":4,
			"componentType":5126,
			"count":36,
			"max":[
				0.7145982384681702,
				0.786697506904602,
				0.6569649577140808
			],
			"min":[
				0.6752800941467285,
				0.1950186938047409,
				-0.6458318829536438
			],
			"type":"VEC3"
		},
		{
			"bufferView":5,
			"componentType":5126,
			"count":36,
			"type":"VEC3"
		},
		{
			"bufferView":6,
			"componentType":5126,
			"count":36,
			"type":"VEC2"
		},
		{
			"bufferView":7,
			"componentType":5123,
			"count":54,
			"type":"SCALAR"
		},
		{
			"bufferView":8,
			"componentType":5126,
			"count":689,
			"max":[
				1,
				1,
				1
			],
			"min":[
				-1.911941647529602,
				-1,
				-1
			],
			"type":"VEC3"
		},
		{
			"bufferView":9,
			"componentType":5126,
			"count":689,
			"type":"VEC3"
		},
		{
			"bufferView":10,
			"componentType":5126,
			"count":689,
			"type":"VEC2"
		},
		{
			"bufferView":11,
			"componentType":5123,
			"count":1050,
			"type":"SCALAR"
		},
		{
			"bufferView":12,
			"componentType":5126,
			"count":689,
			"max":[
				1,
				1,
				1
			],
			"min":[
				-1.911941647529602,
				-1,
				-1
			],
			"type":"VEC3"
		},
		{
			"bufferView":13,
			"componentType":5126,
			"count":689,
			"type":"VEC3"
		},
		{
			"bufferView":14,
			"componentType":5126,
			"count":689,
			"type":"VEC2"
		},
		{
			"bufferView":15,
			"componentType":5126,
			"count":689,
			"max":[
				1,
				1,
				1
			],
			"min":[
				-1.911941647529602,
				-1,
				-1
			],
			"type":"VEC3"
		},
		{
			"bufferView":16,
			"componentType":5126,
			"count":689,
			"type":"VEC3"
		},
		{
			"bufferView":17,
			"componentType":5126,
			"count":689,
			"type":"VEC2"
		},
		{
			"bufferView":18,
			"componentType":5126,
			"count":689,
			"max":[
				1,
				1,
				1
			],
			"min":[
				-1.911941647529602,
				-1,
				-1
			],
			"type":"VEC3"
		},
		{
			"bufferView":19,
			"componentType":5126,
			"count":689,
			"type":"VEC3"
		},
		{
			"bufferView":20,
			"componentType":5126,
			"count":689,
			"type":"VEC2"
		},
		{
			"bufferView":21,
			"componentType":5126,
			"count":448,
			"max":[
				1,
				1,
				1
			],
			"min":[
				-1,
				-1,
				-1
			],
			"type":"VEC3"
		},
		{
			"bufferView":22,
			"componentType":5126,
			"count":448,
			"type":"VEC3"
		},
		{
			"bufferView":23,
			"componentType":5126,
			"count":448,
			"type":"VEC2"
		},
		{
			"bufferView":24,
			"componentType":5123,
			"count":756,
			"type":"SCALAR"
		},
		{
			"bufferView":25,
			"componentType":5126,
			"count":448,
			"max":[
				1,
				1,
				1
			],
			"min":[
				-1,
				-1,
				-1
			],
			"type":"VEC3"
		},
		{
			"bufferView":26,
			"componentType":5126,
			"count":448,
			"type":"VEC3"
		},
		{
			"bufferView":27,
			"componentType":5126,
			"count":448,
			"type":"VEC2"
		},
		{
			"bufferView":28,
			"componentType":5126,
			"count":384,
			"max":[
				0.8395062685012817,
				0.8395062685012817,
				0.8395062685012817
			],
			"min":[
				-0.8395062685012817,
				-0.8395062685012817,
				-0.8395062685012817
			],
			"type":"VEC3"
		},
		{
			"bufferView":29,
			"componentType":5126,
			"count":384,
			"type":"VEC3"
		},
		{
			"bufferView":30,
			"componentType":5126,
			"count":384,
			"type":"VEC2"
		},
		{
			"bufferView":31,
			"componentType":5123,
			"count":576,
			"type":"SCALAR"
		},
		{
			"bufferView":32,
			"componentType":5126,
			"count":384,
			"max":[
				0.8395062685012817,
				0.8395062685012817,
				0.8395062685012817
			],
			"min":[
				-0.8395062685012817,
				-0.8395062685012817,
				-0.8395062685012817
			],
			"type":"VEC3"
		},
		{
			"bufferView":33,
			"componentType":5126,
			"count":384,
			"type":"VEC3"
		},
		{
			"bufferView":34,
			"componentType":5126,
			"count":384,
			"type":"VEC2"
		}
	],
	"bufferViews":[
		{
			"buffer":0,
			"byteLength":5976,
			"byteOffset":0,
			"target":34962
		},
		{
			"buffer":0,
			"byteLength":5976,
			"byteOffset":5976,
			"target":34962
		},
		{
			"buffer":0,
			"byteLength":3984,
			"byteOffset":11952,
			"target":34962
		},
		{
			"buffer":0,
			"byteLength":1836,
			"byteOffset":15936,
			"target":34963
		},
		{
			"buffer":0,
			"byteLength":432,
			"byteOffset":17772,
			"target":34962
		},
		{
			"buffer":0,
			"byteLength":432,
			"byteOffset":18204,
			"target":34962
		},
		{
			"buffer":0,
			"byteLength":288,
			"byteOffset":18636,
			"target":34962
		},
		{
			"buffer":0,
			"byteLength":108,
			"byteOffset":18924,
			"target":34963
		},
		{
			"buffer":0,
			"byteLength":8268,
			"byteOffset":19032,
			"target":34962
		},
		{
			"buffer":0,
			"byteLength":8268,
			"byteOffset":27300,
			"target":34962
		},
		{
			"buffer":0,
			"byteLength":5512,
			"byteOffset":35568,
			"target":34962
		},
		{
			"buffer":0,
			"byteLength":2100,
			"byteOffset":41080,
			"target":34963
		},
		{
			"buffer":0,
			"byteLength":8268,
			"byteOffset":43180,
			"target":34962
		},
		{
			"buffer":0,
			"byteLength":8268,
			"byteOffset":51448,
			"target":34962
		},
		{
			"buffer":0,
			"byteLength":5512,
			"byteOffset":59716,
			"target":34962
		},
		{
			"buffer":0,
			"byteLength":8268,
			"byteOffset":65228,
			"target":34962
		},
		{
			"buffer":0,
			"byteLength":8268,
			"byteOffset":73496,
			"target":34962
		},
		{
			"buffer":0,
			"byteLength":5512,
			"byteOffset":81764,
			"target":34962
		},
		{
			"buffer":0,
			"byteLength":8268,
			"byteOffset":87276,
			"target":34962
		},
		{
			"buffer":0,
			"byteLength":8268,
			"byteOffset":95544,
			"target":34962
		},
		{
			"buffer":0,
			"byteLength":5512,
			"byteOffset":103812,
			"target":34962
		},
		{
			"buffer":0,
			"byteLength":5376,
			"byteOffset":109324,
			"target":34962
		},
		{
			"buffer":0,
			"byteLength":5376,
			"byteOffset":114700,
			"target":34962
		},
		{
			"buffer":0,
			"byteLength":3584,
			"byteOffset":120076,
			"target":34962
		},
		{
			"buffer":0,
			"byteLength":1512,
			"byteOffset":123660,
			"target":34963
		},
		{
			"buffer":0,
			"byteLength":5376,
			"byteOffset":125172,
			"target":34962
		},
		{
			"buffer":0,
			"byteLength":5376,
			"byteOffset":130548,
			"target":34962
		},
		{
			"buffer":0,
			"byteLength":3584,
			"byteOffset":135924,
			"target":34962
		},
		{
			"buffer":0,
			"byteLength":4608,
			"byteOffset":139508,
			"target":34962
		},
		{
			"buffer":0,
			"byteLength":4608,
			"byteOffset":144116,
			"target":34962
		},
		{
			"buffer":0,
			"byteLength":3072,
			"byteOffset":148724,
			"target":34962
		},
		{
			"buffer":0,
			"byteLength":1152,
			"byteOffset":151796,
			"target":34963
		},
		{
			"buffer":0,
			"byteLength":4608,
			"byteOffset":152948,
			"target":34962
		},
		{
			"buffer":0,
			"byteLength":4608,
			"byteOffset":157556,
			"target":34962
		},
		{
			"buffer":0,
			"byteLength":3072,
			"byteOffset":162164,
			"target":34962
		}
	],
	"buffers":[
		{
			"byteLength":165236,
			"uri":"data:application/octet-stream;base64,"
		}
	]
}
