{
	"asset":{
		"generator":"Khronos glTF Blender I/O v3.6.27",
		"version":"2.0"
	},
	"scene":0,
	"scenes":[
		{
			"name":"Scene",
			"nodes":[
				0
			]
		}
	],
	"nodes":[
		{
			"mesh":0,
			"name":"Cube.001",
			"translation":[
				0,
				1,
				0
			]
		}
	],
	"materials":[
		{
			"doubleSided":true,
			"name":"gravel",
			"pbrMetallicRoughness":{
				"baseColorTexture":{
					"index":0
				},
				"metallicFactor":0,
				"roughnessFactor":0.5
			}
		}
	],
	"meshes":[
		{
			"name":"Cube",
			"primitives":[
				{
					"attributes":{
						"POSITION":0,
						"NORMAL":1,
						"TEXCOORD_0":2
					},
					"indices":3,
					"material":0
				}
			]
		}
	],
	"textures":[
		{
			"sampler":0,
			"source":0
		}
	],
	"images":[
		{
			"bufferView":4,
			"mimeType":"image/png",
			"name":"DALL\u00b7E 2023-12-07 21.53.37 - grey rock texture"
		}
	],
	"accessors":[
		{
			"bufferView":0,
			"componentType":5126,
			"count":1864,
			"max":[
				1.0233045816421509,
				-0.7913556098937988,
				1.000274896621704
			],
			"min":[
				-1.0078378915786743,
				-1,
				-1.0138881206512451
			],
			"type":"VEC3"
		},
		{
			"bufferView":1,
			"componentType":5126,
			"count":1864,
			"type":"VEC3"
		},
		{
			"bufferView":2,
			"componentType":5126,
			"count":1864,
			"type":"VEC2"
		},
		{
			"bufferView":3,
			"componentType":5123,
			"count":2916,
			"type":"SCALAR"
		}
	],
	"bufferViews":[
		{
			"buffer":0,
			"byteLength":22368,
			"byteOffset":0,
			"target":34962
		},
		{
			"buffer":0,
			"byteLength":22368,
			"byteOffset":22368,
			"target":34962
		},
		{
			"buffer":0,
			"byteLength":14912,
			"byteOffset":44736,
			"target":34962
		},
		{
			"buffer":0,
			"byteLength":5832,
			"byteOffset":59648,
			"target":34963
		},
		{
			"buffer":0,
			"byteLength":2665341,
			"byteOffset":65480
		}
	],
	"samplers":[
		{
			"magFilter":9729,
			"minFilter":9987
		}
	],
	"buffers":[
		{
			"byteLength":2730824,
			"uri":"data:application/octet-stream;base64,"
		}
	]
}
