{
	"asset":{
		"generator":"Khronos glTF Blender I/O v3.6.27",
		"version":"2.0"
	},
	"scene":0,
	"scenes":[
		{
			"name":"Scene",
			"nodes":[
				0,
				1
			]
		}
	],
	"nodes":[
		{
			"mesh":0,
			"name":"Cube.002",
			"rotation":[
				0,
				-1,
				0,
				1.910685676922942e-15
			],
			"scale":[
				0.9617412686347961,
				0.014999999664723873,
				0.5770448446273804
			],
			"translation":[
				0.8717873096466064,
				0,
				0.23181773722171783
			]
		},
		{
			"mesh":1,
			"name":"Cube.003",
			"scale":[
				2.5,
				0.02500000037252903,
				1.5
			],
			"translation":[
				0.23876619338989258,
				0,
				0
			]
		}
	],
	"materials":[
		{
			"doubleSided":true,
			"name":"link",
			"pbrMetallicRoughness":{
				"baseColorFactor":[
					0.03409380093216896,
					0.4241325557231903,
					0.8000000715255737,
					1
				],
				"metallicFactor":0,
				"roughnessFactor":0.5
			}
		}
	],
	"meshes":[
		{
			"name":"Cube.005",
			"primitives":[
				{
					"attributes":{
						"POSITION":0,
						"NORMAL":1,
						"TEXCOORD_0":2
					},
					"indices":3,
					"material":0
				}
			]
		},
		{
			"name":"Cube.001",
			"primitives":[
				{
					"attributes":{
						"POSITION":4,
						"NORMAL":5,
						"TEXCOORD_0":6
					},
					"indices":7,
					"material":0
				}
			]
		}
	],
	"accessors":[
		{
			"bufferView":0,
			"componentType":5126,
			"count":2304,
			"max":[
				2.316406726837158,
				1,
				1.8034653663635254
			],
			"min":[
				-1.0000004768371582,
				-1,
				-1.0000001192092896
			],
			"type":"VEC3"
		},
		{
			"bufferView":1,
			"componentType":5126,
			"count":2304,
			"type":"VEC3"
		},
		{
			"bufferView":2,
			"componentType":5126,
			"count":2304,
			"type":"VEC2"
		},
		{
			"bufferView":3,
			"componentType":5123,
			"count":3408,
			"type":"SCALAR"
		},
		{
			"bufferView":4,
			"componentType":5126,
			"count":48,
			"max":[
				1.0000001192092896,
				1,
				1
			],
			"min":[
				-1.0000001192092896,
				-1,
				-1
			],
			"type":"VEC3"
		},
		{
			"bufferView":5,
			"componentType":5126,
			"count":48,
			"type":"VEC3"
		},
		{
			"bufferView":6,
			"componentType":5126,
			"count":48,
			"type":"VEC2"
		},
		{
			"bufferView":7,
			"componentType":5123,
			"count":96,
			"type":"SCALAR"
		}
	],
	"bufferViews":[
		{
			"buffer":0,
			"byteLength":27648,
			"byteOffset":0,
			"target":34962
		},
		{
			"buffer":0,
			"byteLength":27648,
			"byteOffset":27648,
			"target":34962
		},
		{
			"buffer":0,
			"byteLength":18432,
			"byteOffset":55296,
			"target":34962
		},
		{
			"buffer":0,
			"byteLength":6816,
			"byteOffset":73728,
			"target":34963
		},
		{
			"buffer":0,
			"byteLength":576,
			"byteOffset":80544,
			"target":34962
		},
		{
			"buffer":0,
			"byteLength":576,
			"byteOffset":81120,
			"target":34962
		},
		{
			"buffer":0,
			"byteLength":384,
			"byteOffset":81696,
			"target":34962
		},
		{
			"buffer":0,
			"byteLength":192,
			"byteOffset":82080,
			"target":34963
		}
	],
	"buffers":[
		{
			"byteLength":82272,
			"uri":"data:application/octet-stream;base64,"
		}
	]
}
