{
	"asset":{
		"generator":"Khronos glTF Blender I/O v3.6.28",
		"version":"2.0"
	},
	"scene":0,
	"scenes":[
		{
			"name":"Scene",
			"nodes":[
				0
			]
		}
	],
	"nodes":[
		{
			"mesh":0,
			"name":"Text.002",
			"rotation":[
				0.7071068286895752,
				0,
				0,
				0.7071068286895752
			],
			"scale":[
				1.12271249294281,
				1,
				1.0314594507217407
			],
			"translation":[
				0,
				1,
				0
			]
		}
	],
	"animations":[
		{
			"channels":[
				{
					"sampler":0,
					"target":{
						"node":0,
						"path":"translation"
					}
				}
			],
			"name":"Float",
			"samplers":[
				{
					"input":4,
					"interpolation":"LINEAR",
					"output":5
				}
			]
		}
	],
	"materials":[
		{
			"doubleSided":true,
			"name":"color",
			"pbrMetallicRoughness":{
				"baseColorFactor":[
					0.03820403665304184,
					0.05951103940606117,
					0.4735313951969147,
					1
				],
				"metallicFactor":0,
				"roughnessFactor":0.5
			}
		}
	],
	"meshes":[
		{
			"name":"Text.002",
			"primitives":[
				{
					"attributes":{
						"POSITION":0,
						"NORMAL":1,
						"TEXCOORD_0":2
					},
					"indices":3,
					"material":0
				}
			]
		}
	],
	"accessors":[
		{
			"bufferView":0,
			"componentType":5126,
			"count":4864,
			"max":[
				8.968999862670898,
				9.999999747378752e-06,
				1.090000033378601
			],
			"min":[
				0.06200000271201134,
				-0.30000001192092896,
				-0.8490000367164612
			],
			"type":"VEC3"
		},
		{
			"bufferView":1,
			"componentType":5126,
			"count":4864,
			"type":"VEC3"
		},
		{
			"bufferView":2,
			"componentType":5126,
			"count":4864,
			"type":"VEC2"
		},
		{
			"bufferView":3,
			"componentType":5123,
			"count":9444,
			"type":"SCALAR"
		},
		{
			"bufferView":4,
			"componentType":5126,
			"count":121,
			"max":[
				5
			],
			"min":[
				0
			],
			"type":"SCALAR"
		},
		{
			"bufferView":5,
			"componentType":5126,
			"count":121,
			"type":"VEC3"
		}
	],
	"bufferViews":[
		{
			"buffer":0,
			"byteLength":58368,
			"byteOffset":0,
			"target":34962
		},
		{
			"buffer":0,
			"byteLength":58368,
			"byteOffset":58368,
			"target":34962
		},
		{
			"buffer":0,
			"byteLength":38912,
			"byteOffset":116736,
			"target":34962
		},
		{
			"buffer":0,
			"byteLength":18888,
			"byteOffset":155648,
			"target":34963
		},
		{
			"buffer":0,
			"byteLength":484,
			"byteOffset":174536
		},
		{
			"buffer":0,
			"byteLength":1452,
			"byteOffset":175020
		}
	],
	"buffers":[
		{
			"byteLength":176472,
			"uri":"data:application/octet-stream;base64,"
		}
	]
}
