{
	"asset":{
		"generator":"Khronos glTF Blender I/O v3.6.28",
		"version":"2.0"
	},
	"scene":0,
	"scenes":[
		{
			"name":"Scene",
			"nodes":[
				0
			]
		}
	],
	"nodes":[
		{
			"mesh":0,
			"name":"Text",
			"rotation":[
				0.7071068286895752,
				0,
				0,
				0.7071068286895752
			],
			"scale":[
				1.0610392093658447,
				1,
				1.049647569656372
			],
			"translation":[
				0,
				1,
				0
			]
		}
	],
	"animations":[
		{
			"channels":[
				{
					"sampler":0,
					"target":{
						"node":0,
						"path":"translation"
					}
				}
			],
			"name":"Float",
			"samplers":[
				{
					"input":4,
					"interpolation":"LINEAR",
					"output":5
				}
			]
		}
	],
	"materials":[
		{
			"doubleSided":true,
			"name":"color",
			"pbrMetallicRoughness":{
				"baseColorFactor":[
					0.03820403665304184,
					0.05951103940606117,
					0.4735313951969147,
					1
				],
				"metallicFactor":0,
				"roughnessFactor":0.5
			}
		}
	],
	"meshes":[
		{
			"name":"Text",
			"primitives":[
				{
					"attributes":{
						"POSITION":0,
						"NORMAL":1,
						"TEXCOORD_0":2
					},
					"indices":3,
					"material":0
				}
			]
		}
	],
	"accessors":[
		{
			"bufferView":0,
			"componentType":5126,
			"count":17549,
			"max":[
				9.455999374389648,
				0,
				1.2300000190734863
			],
			"min":[
				0.03127641603350639,
				-0.3000001311302185,
				-0.675401508808136
			],
			"type":"VEC3"
		},
		{
			"bufferView":1,
			"componentType":5126,
			"count":17549,
			"type":"VEC3"
		},
		{
			"bufferView":2,
			"componentType":5126,
			"count":17549,
			"type":"VEC2"
		},
		{
			"bufferView":3,
			"componentType":5123,
			"count":34584,
			"type":"SCALAR"
		},
		{
			"bufferView":4,
			"componentType":5126,
			"count":121,
			"max":[
				5
			],
			"min":[
				0
			],
			"type":"SCALAR"
		},
		{
			"bufferView":5,
			"componentType":5126,
			"count":121,
			"type":"VEC3"
		}
	],
	"bufferViews":[
		{
			"buffer":0,
			"byteLength":210588,
			"byteOffset":0,
			"target":34962
		},
		{
			"buffer":0,
			"byteLength":210588,
			"byteOffset":210588,
			"target":34962
		},
		{
			"buffer":0,
			"byteLength":140392,
			"byteOffset":421176,
			"target":34962
		},
		{
			"buffer":0,
			"byteLength":69168,
			"byteOffset":561568,
			"target":34963
		},
		{
			"buffer":0,
			"byteLength":484,
			"byteOffset":630736
		},
		{
			"buffer":0,
			"byteLength":1452,
			"byteOffset":631220
		}
	],
	"buffers":[
		{
			"byteLength":632672,
			"uri":"data:application/octet-stream;base64,"
		}
	]
}
