{
	"asset":{
		"generator":"Khronos glTF Blender I/O v3.6.28",
		"version":"2.0"
	},
	"scene":0,
	"scenes":[
		{
			"name":"Scene",
			"nodes":[
				0,
				1,
				2,
				3,
				4,
				5
			]
		}
	],
	"nodes":[
		{
			"mesh":0,
			"name":"Head",
			"translation":[
				0,
				4.800000190734863,
				0
			]
		},
		{
			"mesh":1,
			"name":"Right Arm",
			"translation":[
				0.8000000715255737,
				4.39776611328125,
				0
			]
		},
		{
			"mesh":2,
			"name":"Left Arm",
			"rotation":[
				0,
				0.0016594683984294534,
				-0.00043987497338093817,
				1
			],
			"translation":[
				-0.795891523361206,
				4.398828029632568,
				0
			]
		},
		{
			"mesh":3,
			"name":"Right Leg",
			"translation":[
				0,
				2.0400352478027344,
				0
			]
		},
		{
			"mesh":4,
			"name":"Left Leg",
			"translation":[
				0,
				2.0424325466156006,
				0
			]
		},
		{
			"mesh":5,
			"name":"Torso",
			"translation":[
				0,
				3.5999999046325684,
				0
			]
		}
	],
	"animations":[
		{
			"channels":[
				{
					"sampler":0,
					"target":{
						"node":1,
						"path":"translation"
					}
				},
				{
					"sampler":1,
					"target":{
						"node":1,
						"path":"rotation"
					}
				},
				{
					"sampler":2,
					"target":{
						"node":1,
						"path":"scale"
					}
				},
				{
					"sampler":3,
					"target":{
						"node":2,
						"path":"translation"
					}
				},
				{
					"sampler":4,
					"target":{
						"node":2,
						"path":"rotation"
					}
				},
				{
					"sampler":5,
					"target":{
						"node":2,
						"path":"scale"
					}
				},
				{
					"sampler":6,
					"target":{
						"node":3,
						"path":"translation"
					}
				},
				{
					"sampler":7,
					"target":{
						"node":3,
						"path":"rotation"
					}
				},
				{
					"sampler":8,
					"target":{
						"node":4,
						"path":"translation"
					}
				},
				{
					"sampler":9,
					"target":{
						"node":4,
						"path":"rotation"
					}
				},
				{
					"sampler":10,
					"target":{
						"node":4,
						"path":"scale"
					}
				}
			],
			"name":"Walk",
			"samplers":[
				{
					"input":27,
					"interpolation":"STEP",
					"output":28
				},
				{
					"input":29,
					"interpolation":"LINEAR",
					"output":30
				},
				{
					"input":27,
					"interpolation":"STEP",
					"output":31
				},
				{
					"input":27,
					"interpolation":"STEP",
					"output":32
				},
				{
					"input":29,
					"interpolation":"LINEAR",
					"output":33
				},
				{
					"input":27,
					"interpolation":"STEP",
					"output":34
				},
				{
					"input":27,
					"interpolation":"STEP",
					"output":35
				},
				{
					"input":29,
					"interpolation":"LINEAR",
					"output":36
				},
				{
					"input":27,
					"interpolation":"STEP",
					"output":37
				},
				{
					"input":29,
					"interpolation":"LINEAR",
					"output":38
				},
				{
					"input":27,
					"interpolation":"STEP",
					"output":39
				}
			]
		}
	],
	"materials":[
		{
			"doubleSided":true,
			"name":"skin",
			"pbrMetallicRoughness":{
				"baseColorTexture":{
					"index":0
				},
				"metallicFactor":0,
				"roughnessFactor":0.5
			}
		}
	],
	"meshes":[
		{
			"name":"Cube.001",
			"primitives":[
				{
					"attributes":{
						"COLOR_0":0,
						"POSITION":1,
						"NORMAL":2,
						"TEXCOORD_0":3
					},
					"indices":4,
					"material":0
				}
			]
		},
		{
			"name":"Cube.005",
			"primitives":[
				{
					"attributes":{
						"COLOR_0":5,
						"POSITION":6,
						"NORMAL":7,
						"TEXCOORD_0":8
					},
					"indices":9,
					"material":0
				}
			]
		},
		{
			"name":"Cube.007",
			"primitives":[
				{
					"attributes":{
						"POSITION":10,
						"NORMAL":11,
						"TEXCOORD_0":12
					},
					"indices":13,
					"material":0
				}
			]
		},
		{
			"name":"Cube.003",
			"primitives":[
				{
					"attributes":{
						"POSITION":14,
						"NORMAL":15,
						"TEXCOORD_0":16
					},
					"indices":17,
					"material":0
				}
			]
		},
		{
			"name":"Cube.008",
			"primitives":[
				{
					"attributes":{
						"COLOR_0":18,
						"POSITION":19,
						"NORMAL":20,
						"TEXCOORD_0":21
					},
					"indices":22,
					"material":0
				}
			]
		},
		{
			"name":"Cube.002",
			"primitives":[
				{
					"attributes":{
						"COLOR_0":23,
						"POSITION":24,
						"NORMAL":25,
						"TEXCOORD_0":26
					},
					"indices":4,
					"material":0
				}
			]
		}
	],
	"textures":[
		{
			"sampler":0,
			"source":0
		}
	],
	"images":[
		{
			"bufferView":5,
			"mimeType":"image/png",
			"name":"skingenerator"
		}
	],
	"accessors":[
		{
			"bufferView":0,
			"componentType":5123,
			"count":24,
			"normalized":true,
			"type":"VEC4"
		},
		{
			"bufferView":1,
			"componentType":5126,
			"count":24,
			"max":[
				0.800000011920929,
				1.600000023841858,
				0.800000011920929
			],
			"min":[
				-0.800000011920929,
				0,
				-0.800000011920929
			],
			"type":"VEC3"
		},
		{
			"bufferView":2,
			"componentType":5126,
			"count":24,
			"type":"VEC3"
		},
		{
			"bufferView":3,
			"componentType":5126,
			"count":24,
			"type":"VEC2"
		},
		{
			"bufferView":4,
			"componentType":5123,
			"count":36,
			"type":"SCALAR"
		},
		{
			"bufferView":6,
			"componentType":5123,
			"count":40,
			"normalized":true,
			"type":"VEC4"
		},
		{
			"bufferView":7,
			"componentType":5126,
			"count":40,
			"max":[
				0.8000006079673767,
				0.4039939343929291,
				0.40176936984062195
			],
			"min":[
				-4.796501116288709e-07,
				-1.9995096921920776,
				-0.40880393981933594
			],
			"type":"VEC3"
		},
		{
			"bufferView":8,
			"componentType":5126,
			"count":40,
			"type":"VEC3"
		},
		{
			"bufferView":9,
			"componentType":5126,
			"count":40,
			"type":"VEC2"
		},
		{
			"bufferView":10,
			"componentType":5123,
			"count":84,
			"type":"SCALAR"
		},
		{
			"bufferView":11,
			"componentType":5126,
			"count":34,
			"max":[
				3.556436922735884e-07,
				0.4011719226837158,
				0.400000661611557
			],
			"min":[
				-0.8000002503395081,
				-1.9988281726837158,
				-0.4000000059604645
			],
			"type":"VEC3"
		},
		{
			"bufferView":12,
			"componentType":5126,
			"count":34,
			"type":"VEC3"
		},
		{
			"bufferView":13,
			"componentType":5126,
			"count":34,
			"type":"VEC2"
		},
		{
			"bufferView":14,
			"componentType":5123,
			"count":60,
			"type":"SCALAR"
		},
		{
			"bufferView":15,
			"componentType":5126,
			"count":34,
			"max":[
				0.800000011920929,
				0.3599647283554077,
				0.4000000059604645
			],
			"min":[
				0,
				-2.0400352478027344,
				-0.4000000059604645
			],
			"type":"VEC3"
		},
		{
			"bufferView":16,
			"componentType":5126,
			"count":34,
			"type":"VEC3"
		},
		{
			"bufferView":17,
			"componentType":5126,
			"count":34,
			"type":"VEC2"
		},
		{
			"bufferView":18,
			"componentType":5123,
			"count":60,
			"type":"SCALAR"
		},
		{
			"bufferView":19,
			"componentType":5123,
			"count":36,
			"normalized":true,
			"type":"VEC4"
		},
		{
			"bufferView":20,
			"componentType":5126,
			"count":36,
			"max":[
				0,
				0.3575674295425415,
				0.4000000059604645
			],
			"min":[
				-0.800000011920929,
				-2.0424327850341797,
				-0.4000000059604645
			],
			"type":"VEC3"
		},
		{
			"bufferView":21,
			"componentType":5126,
			"count":36,
			"type":"VEC3"
		},
		{
			"bufferView":22,
			"componentType":5126,
			"count":36,
			"type":"VEC2"
		},
		{
			"bufferView":23,
			"componentType":5123,
			"count":60,
			"type":"SCALAR"
		},
		{
			"bufferView":24,
			"componentType":5123,
			"count":24,
			"normalized":true,
			"type":"VEC4"
		},
		{
			"bufferView":25,
			"componentType":5126,
			"count":24,
			"max":[
				0.800000011920929,
				1.2000000476837158,
				0.4000000059604645
			],
			"min":[
				-0.800000011920929,
				-1.2000000476837158,
				-0.4000000059604645
			],
			"type":"VEC3"
		},
		{
			"bufferView":26,
			"componentType":5126,
			"count":24,
			"type":"VEC3"
		},
		{
			"bufferView":27,
			"componentType":5126,
			"count":24,
			"type":"VEC2"
		},
		{
			"bufferView":28,
			"componentType":5126,
			"count":2,
			"max":[
				2.4583333333333335
			],
			"min":[
				0
			],
			"type":"SCALAR"
		},
		{
			"bufferView":29,
			"componentType":5126,
			"count":2,
			"type":"VEC3"
		},
		{
			"bufferView":30,
			"componentType":5126,
			"count":60,
			"max":[
				2.4583333333333335
			],
			"min":[
				0
			],
			"type":"SCALAR"
		},
		{
			"bufferView":31,
			"componentType":5126,
			"count":60,
			"type":"VEC4"
		},
		{
			"bufferView":32,
			"componentType":5126,
			"count":2,
			"type":"VEC3"
		},
		{
			"bufferView":33,
			"componentType":5126,
			"count":2,
			"type":"VEC3"
		},
		{
			"bufferView":34,
			"componentType":5126,
			"count":60,
			"type":"VEC4"
		},
		{
			"bufferView":35,
			"componentType":5126,
			"count":2,
			"type":"VEC3"
		},
		{
			"bufferView":36,
			"componentType":5126,
			"count":2,
			"type":"VEC3"
		},
		{
			"bufferView":37,
			"componentType":5126,
			"count":60,
			"type":"VEC4"
		},
		{
			"bufferView":38,
			"componentType":5126,
			"count":2,
			"type":"VEC3"
		},
		{
			"bufferView":39,
			"componentType":5126,
			"count":60,
			"type":"VEC4"
		},
		{
			"bufferView":40,
			"componentType":5126,
			"count":2,
			"type":"VEC3"
		}
	],
	"bufferViews":[
		{
			"buffer":0,
			"byteLength":192,
			"byteOffset":0,
			"target":34962
		},
		{
			"buffer":0,
			"byteLength":288,
			"byteOffset":192,
			"target":34962
		},
		{
			"buffer":0,
			"byteLength":288,
			"byteOffset":480,
			"target":34962
		},
		{
			"buffer":0,
			"byteLength":192,
			"byteOffset":768,
			"target":34962
		},
		{
			"buffer":0,
			"byteLength":72,
			"byteOffset":960,
			"target":34963
		},
		{
			"buffer":0,
			"byteLength":14254,
			"byteOffset":1032
		},
		{
			"buffer":0,
			"byteLength":320,
			"byteOffset":15288,
			"target":34962
		},
		{
			"buffer":0,
			"byteLength":480,
			"byteOffset":15608,
			"target":34962
		},
		{
			"buffer":0,
			"byteLength":480,
			"byteOffset":16088,
			"target":34962
		},
		{
			"buffer":0,
			"byteLength":320,
			"byteOffset":16568,
			"target":34962
		},
		{
			"buffer":0,
			"byteLength":168,
			"byteOffset":16888,
			"target":34963
		},
		{
			"buffer":0,
			"byteLength":408,
			"byteOffset":17056,
			"target":34962
		},
		{
			"buffer":0,
			"byteLength":408,
			"byteOffset":17464,
			"target":34962
		},
		{
			"buffer":0,
			"byteLength":272,
			"byteOffset":17872,
			"target":34962
		},
		{
			"buffer":0,
			"byteLength":120,
			"byteOffset":18144,
			"target":34963
		},
		{
			"buffer":0,
			"byteLength":408,
			"byteOffset":18264,
			"target":34962
		},
		{
			"buffer":0,
			"byteLength":408,
			"byteOffset":18672,
			"target":34962
		},
		{
			"buffer":0,
			"byteLength":272,
			"byteOffset":19080,
			"target":34962
		},
		{
			"buffer":0,
			"byteLength":120,
			"byteOffset":19352,
			"target":34963
		},
		{
			"buffer":0,
			"byteLength":288,
			"byteOffset":19472,
			"target":34962
		},
		{
			"buffer":0,
			"byteLength":432,
			"byteOffset":19760,
			"target":34962
		},
		{
			"buffer":0,
			"byteLength":432,
			"byteOffset":20192,
			"target":34962
		},
		{
			"buffer":0,
			"byteLength":288,
			"byteOffset":20624,
			"target":34962
		},
		{
			"buffer":0,
			"byteLength":120,
			"byteOffset":20912,
			"target":34963
		},
		{
			"buffer":0,
			"byteLength":192,
			"byteOffset":21032,
			"target":34962
		},
		{
			"buffer":0,
			"byteLength":288,
			"byteOffset":21224,
			"target":34962
		},
		{
			"buffer":0,
			"byteLength":288,
			"byteOffset":21512,
			"target":34962
		},
		{
			"buffer":0,
			"byteLength":192,
			"byteOffset":21800,
			"target":34962
		},
		{
			"buffer":0,
			"byteLength":8,
			"byteOffset":21992
		},
		{
			"buffer":0,
			"byteLength":24,
			"byteOffset":22000
		},
		{
			"buffer":0,
			"byteLength":240,
			"byteOffset":22024
		},
		{
			"buffer":0,
			"byteLength":960,
			"byteOffset":22264
		},
		{
			"buffer":0,
			"byteLength":24,
			"byteOffset":23224
		},
		{
			"buffer":0,
			"byteLength":24,
			"byteOffset":23248
		},
		{
			"buffer":0,
			"byteLength":960,
			"byteOffset":23272
		},
		{
			"buffer":0,
			"byteLength":24,
			"byteOffset":24232
		},
		{
			"buffer":0,
			"byteLength":24,
			"byteOffset":24256
		},
		{
			"buffer":0,
			"byteLength":960,
			"byteOffset":24280
		},
		{
			"buffer":0,
			"byteLength":24,
			"byteOffset":25240
		},
		{
			"buffer":0,
			"byteLength":960,
			"byteOffset":25264
		},
		{
			"buffer":0,
			"byteLength":24,
			"byteOffset":26224
		}
	],
	"samplers":[
		{
			"magFilter":9729,
			"minFilter":9987
		}
	],
	"buffers":[
		{
			"byteLength":26248,
			"uri":"data:application/octet-stream;base64,"
		}
	]
}
