{
	"asset":{
		"generator":"Khronos glTF Blender I/O v3.6.27",
		"version":"2.0"
	},
	"scene":0,
	"scenes":[
		{
			"name":"Scene",
			"nodes":[
				0
			]
		}
	],
	"nodes":[
		{
			"mesh":0,
			"name":"Cube",
			"translation":[
				0,
				1,
				0
			]
		}
	],
	"materials":[
		{
			"doubleSided":true,
			"name":"rock",
			"pbrMetallicRoughness":{
				"baseColorTexture":{
					"index":0
				},
				"metallicFactor":0,
				"roughnessFactor":0.5
			}
		}
	],
	"meshes":[
		{
			"name":"Cube.001",
			"primitives":[
				{
					"attributes":{
						"POSITION":0,
						"NORMAL":1,
						"TEXCOORD_0":2
					},
					"indices":3,
					"material":0
				}
			]
		}
	],
	"textures":[
		{
			"sampler":0,
			"source":0
		}
	],
	"images":[
		{
			"bufferView":4,
			"mimeType":"image/png",
			"name":"rock"
		}
	],
	"accessors":[
		{
			"bufferView":0,
			"componentType":5126,
			"count":24062,
			"max":[
				1.3947432041168213,
				3.488436460494995,
				1.1882597208023071
			],
			"min":[
				-1.511328101158142,
				-1.0439822673797607,
				-3.4851667881011963
			],
			"type":"VEC3"
		},
		{
			"bufferView":1,
			"componentType":5126,
			"count":24062,
			"type":"VEC3"
		},
		{
			"bufferView":2,
			"componentType":5126,
			"count":24062,
			"type":"VEC2"
		},
		{
			"bufferView":3,
			"componentType":5123,
			"count":37416,
			"type":"SCALAR"
		}
	],
	"bufferViews":[
		{
			"buffer":0,
			"byteLength":288744,
			"byteOffset":0,
			"target":34962
		},
		{
			"buffer":0,
			"byteLength":288744,
			"byteOffset":288744,
			"target":34962
		},
		{
			"buffer":0,
			"byteLength":192496,
			"byteOffset":577488,
			"target":34962
		},
		{
			"buffer":0,
			"byteLength":74832,
			"byteOffset":769984,
			"target":34963
		},
		{
			"buffer":0,
			"byteLength":169381,
			"byteOffset":844816
		}
	],
	"samplers":[
		{
			"magFilter":9729,
			"minFilter":9987
		}
	],
	"buffers":[
		{
			"byteLength":1014200,
			"uri":"data:application/octet-stream;base64,"
		}
	]
}
