{
	"asset":{
		"generator":"Khronos glTF Blender I/O v3.6.27",
		"version":"2.0"
	},
	"scene":0,
	"scenes":[
		{
			"name":"Scene",
			"nodes":[
				0,
				1,
				2
			]
		}
	],
	"nodes":[
		{
			"mesh":0,
			"name":"Cube.041",
			"scale":[
				0.6913182139396667,
				5.530545711517334,
				0.6913182139396667
			],
			"translation":[
				0,
				4.049014568328857,
				-12.23678207397461
			]
		},
		{
			"mesh":1,
			"name":"Cube.042",
			"scale":[
				0.6913182139396667,
				9.710796356201172,
				18.852880477905273
			],
			"translation":[
				0,
				19.182554244995117,
				-0.8350334167480469
			]
		},
		{
			"mesh":2,
			"name":"Cube.038",
			"scale":[
				0.6913182139396667,
				5.530545711517334,
				0.6913182139396667
			],
			"translation":[
				0,
				4.049014568328857,
				10.619083404541016
			]
		}
	],
	"materials":[
		{
			"doubleSided":true,
			"name":"wood",
			"pbrMetallicRoughness":{
				"baseColorTexture":{
					"index":0
				},
				"metallicFactor":0,
				"roughnessFactor":0.5
			}
		},
		{
			"doubleSided":true,
			"name":"SignText",
			"pbrMetallicRoughness":{
				"baseColorFactor":[
					0.8000000715255737,
					0.17618300020694733,
					0.489513099193573,
					1
				],
				"metallicFactor":0,
				"roughnessFactor":0.5
			}
		}
	],
	"meshes":[
		{
			"name":"Cube.044",
			"primitives":[
				{
					"attributes":{
						"POSITION":0,
						"NORMAL":1,
						"TEXCOORD_0":2
					},
					"indices":3,
					"material":0
				}
			]
		},
		{
			"name":"Cube.045",
			"primitives":[
				{
					"attributes":{
						"POSITION":4,
						"NORMAL":5,
						"TEXCOORD_0":6
					},
					"indices":7,
					"material":0
				},
				{
					"attributes":{
						"POSITION":8,
						"NORMAL":9,
						"TEXCOORD_0":10
					},
					"indices":11,
					"material":1
				}
			]
		},
		{
			"name":"Cube.046",
			"primitives":[
				{
					"attributes":{
						"POSITION":12,
						"NORMAL":13,
						"TEXCOORD_0":14
					},
					"indices":3,
					"material":0
				}
			]
		}
	],
	"textures":[
		{
			"sampler":0,
			"source":0
		}
	],
	"images":[
		{
			"bufferView":4,
			"mimeType":"image/png",
			"name":"wood"
		}
	],
	"accessors":[
		{
			"bufferView":0,
			"componentType":5126,
			"count":24,
			"max":[
				1,
				1,
				1
			],
			"min":[
				-1,
				-1,
				-1
			],
			"type":"VEC3"
		},
		{
			"bufferView":1,
			"componentType":5126,
			"count":24,
			"type":"VEC3"
		},
		{
			"bufferView":2,
			"componentType":5126,
			"count":24,
			"type":"VEC2"
		},
		{
			"bufferView":3,
			"componentType":5123,
			"count":36,
			"type":"SCALAR"
		},
		{
			"bufferView":5,
			"componentType":5126,
			"count":56,
			"max":[
				2.4996743202209473,
				1.1353740692138672,
				1
			],
			"min":[
				-1,
				-1,
				-1
			],
			"type":"VEC3"
		},
		{
			"bufferView":6,
			"componentType":5126,
			"count":56,
			"type":"VEC3"
		},
		{
			"bufferView":7,
			"componentType":5126,
			"count":56,
			"type":"VEC2"
		},
		{
			"bufferView":8,
			"componentType":5123,
			"count":102,
			"type":"SCALAR"
		},
		{
			"bufferView":9,
			"componentType":5126,
			"count":4,
			"max":[
				0.2315068244934082,
				0.9690099358558655,
				0.9690098762512207
			],
			"min":[
				0.2315068244934082,
				-0.9690099358558655,
				-0.9690101146697998
			],
			"type":"VEC3"
		},
		{
			"bufferView":10,
			"componentType":5126,
			"count":4,
			"type":"VEC3"
		},
		{
			"bufferView":11,
			"componentType":5126,
			"count":4,
			"type":"VEC2"
		},
		{
			"bufferView":12,
			"componentType":5123,
			"count":6,
			"type":"SCALAR"
		},
		{
			"bufferView":13,
			"componentType":5126,
			"count":24,
			"max":[
				1,
				1,
				1
			],
			"min":[
				-1,
				-1,
				-1
			],
			"type":"VEC3"
		},
		{
			"bufferView":14,
			"componentType":5126,
			"count":24,
			"type":"VEC3"
		},
		{
			"bufferView":15,
			"componentType":5126,
			"count":24,
			"type":"VEC2"
		}
	],
	"bufferViews":[
		{
			"buffer":0,
			"byteLength":288,
			"byteOffset":0,
			"target":34962
		},
		{
			"buffer":0,
			"byteLength":288,
			"byteOffset":288,
			"target":34962
		},
		{
			"buffer":0,
			"byteLength":192,
			"byteOffset":576,
			"target":34962
		},
		{
			"buffer":0,
			"byteLength":72,
			"byteOffset":768,
			"target":34963
		},
		{
			"buffer":0,
			"byteLength":161280,
			"byteOffset":840
		},
		{
			"buffer":0,
			"byteLength":672,
			"byteOffset":162120,
			"target":34962
		},
		{
			"buffer":0,
			"byteLength":672,
			"byteOffset":162792,
			"target":34962
		},
		{
			"buffer":0,
			"byteLength":448,
			"byteOffset":163464,
			"target":34962
		},
		{
			"buffer":0,
			"byteLength":204,
			"byteOffset":163912,
			"target":34963
		},
		{
			"buffer":0,
			"byteLength":48,
			"byteOffset":164116,
			"target":34962
		},
		{
			"buffer":0,
			"byteLength":48,
			"byteOffset":164164,
			"target":34962
		},
		{
			"buffer":0,
			"byteLength":32,
			"byteOffset":164212,
			"target":34962
		},
		{
			"buffer":0,
			"byteLength":12,
			"byteOffset":164244,
			"target":34963
		},
		{
			"buffer":0,
			"byteLength":288,
			"byteOffset":164256,
			"target":34962
		},
		{
			"buffer":0,
			"byteLength":288,
			"byteOffset":164544,
			"target":34962
		},
		{
			"buffer":0,
			"byteLength":192,
			"byteOffset":164832,
			"target":34962
		}
	],
	"samplers":[
		{
			"magFilter":9729,
			"minFilter":9987
		}
	],
	"buffers":[
		{
			"byteLength":165024,
			"uri":"data:application/octet-stream;base64,"
		}
	]
}
