{
	"asset":{
		"generator":"Khronos glTF Blender I/O v3.6.28",
		"version":"2.0"
	},
	"scene":0,
	"scenes":[
		{
			"name":"Scene",
			"nodes":[
				0,
				1
			]
		}
	],
	"nodes":[
		{
			"mesh":0,
			"name":"trunk.002",
			"scale":[
				1,
				4.196914196014404,
				1
			],
			"translation":[
				0,
				2.7243404388427734,
				-0.2481403350830078
			]
		},
		{
			"mesh":1,
			"name":"Leaves",
			"scale":[
				1.1490551233291626,
				1.1490551233291626,
				1.1490551233291626
			],
			"translation":[
				0.12671077251434326,
				7.2020063400268555,
				-0.2858467102050781
			]
		}
	],
	"materials":[
		{
			"doubleSided":true,
			"name":"trunk",
			"pbrMetallicRoughness":{
				"baseColorTexture":{
					"index":0
				},
				"metallicFactor":0,
				"roughnessFactor":0.5
			}
		},
		{
			"doubleSided":true,
			"name":"sakura",
			"pbrMetallicRoughness":{
				"baseColorTexture":{
					"index":1
				},
				"metallicFactor":0,
				"roughnessFactor":0.5
			}
		}
	],
	"meshes":[
		{
			"name":"Cylinder.001",
			"primitives":[
				{
					"attributes":{
						"POSITION":0,
						"TEXCOORD_0":1
					},
					"indices":2,
					"material":0
				}
			]
		},
		{
			"name":"Icosphere.004",
			"primitives":[
				{
					"attributes":{
						"POSITION":3,
						"TEXCOORD_0":4
					},
					"indices":5,
					"material":1
				},
				{
					"attributes":{
						"POSITION":6,
						"TEXCOORD_0":7
					},
					"indices":8,
					"material":1
				}
			]
		}
	],
	"textures":[
		{
			"sampler":0,
			"source":0
		},
		{
			"sampler":0,
			"source":1
		}
	],
	"images":[
		{
			"bufferView":3,
			"mimeType":"image/png",
			"name":"trunkTexture"
		},
		{
			"bufferView":7,
			"mimeType":"image/png",
			"name":"Sakura"
		}
	],
	"accessors":[
		{
			"bufferView":0,
			"componentType":5126,
			"count":196,
			"max":[
				1.4772932529449463,
				1.2871520519256592,
				1.4772932529449463
			],
			"min":[
				-1.4772932529449463,
				-0.7128479480743408,
				-1.4772932529449463
			],
			"type":"VEC3"
		},
		{
			"bufferView":1,
			"componentType":5126,
			"count":196,
			"type":"VEC2"
		},
		{
			"bufferView":2,
			"componentType":5123,
			"count":756,
			"type":"SCALAR"
		},
		{
			"bufferView":4,
			"componentType":5126,
			"count":89,
			"max":[
				1.018193244934082,
				2.4167990684509277,
				0.9529091119766235
			],
			"min":[
				-0.8839225172996521,
				0.8868784308433533,
				-1.047090768814087
			],
			"type":"VEC3"
		},
		{
			"bufferView":5,
			"componentType":5126,
			"count":89,
			"type":"VEC2"
		},
		{
			"bufferView":6,
			"componentType":5123,
			"count":303,
			"type":"SCALAR"
		},
		{
			"bufferView":8,
			"componentType":5126,
			"count":1170,
			"max":[
				2.562067985534668,
				1.3673229217529297,
				2.812046766281128
			],
			"min":[
				-2.683259963989258,
				-1.4717514514923096,
				-2.9054901599884033
			],
			"type":"VEC3"
		},
		{
			"bufferView":9,
			"componentType":5126,
			"count":1170,
			"type":"VEC2"
		},
		{
			"bufferView":10,
			"componentType":5123,
			"count":3726,
			"type":"SCALAR"
		}
	],
	"bufferViews":[
		{
			"buffer":0,
			"byteLength":2352,
			"byteOffset":0,
			"target":34962
		},
		{
			"buffer":0,
			"byteLength":1568,
			"byteOffset":2352,
			"target":34962
		},
		{
			"buffer":0,
			"byteLength":1512,
			"byteOffset":3920,
			"target":34963
		},
		{
			"buffer":0,
			"byteLength":531647,
			"byteOffset":5432
		},
		{
			"buffer":0,
			"byteLength":1068,
			"byteOffset":537080,
			"target":34962
		},
		{
			"buffer":0,
			"byteLength":712,
			"byteOffset":538148,
			"target":34962
		},
		{
			"buffer":0,
			"byteLength":606,
			"byteOffset":538860,
			"target":34963
		},
		{
			"buffer":0,
			"byteLength":259900,
			"byteOffset":539468
		},
		{
			"buffer":0,
			"byteLength":14040,
			"byteOffset":799368,
			"target":34962
		},
		{
			"buffer":0,
			"byteLength":9360,
			"byteOffset":813408,
			"target":34962
		},
		{
			"buffer":0,
			"byteLength":7452,
			"byteOffset":822768,
			"target":34963
		}
	],
	"samplers":[
		{
			"magFilter":9729,
			"minFilter":9987
		}
	],
	"buffers":[
		{
			"byteLength":830220,
			"uri":"data:application/octet-stream;base64,"
		}
	]
}
