{
	"asset":{
		"generator":"Khronos glTF Blender I/O v3.6.28",
		"version":"2.0"
	},
	"scene":0,
	"scenes":[
		{
			"name":"Scene",
			"nodes":[
				0,
				1,
				2,
				3,
				4,
				5,
				6,
				7,
				8,
				9,
				10,
				11,
				12,
				13,
				14
			]
		}
	],
	"nodes":[
		{
			"mesh":0,
			"name":"trunk.001",
			"scale":[
				1,
				4.196914196014404,
				1
			],
			"translation":[
				0,
				2.7243399620056152,
				-0.12562942504882812
			]
		},
		{
			"mesh":1,
			"name":"Leaves.001",
			"scale":[
				1.1490551233291626,
				1.1490551233291626,
				1.1490551233291626
			],
			"translation":[
				0.1267106980085373,
				7.2020063400268555,
				-0.1541280746459961
			]
		},
		{
			"mesh":2,
			"name":"Sphere.001",
			"scale":[
				0.22898954153060913,
				0.22898954153060913,
				0.22898954153060913
			],
			"translation":[
				2.9544565677642822,
				6.379690170288086,
				0.8495512008666992
			]
		},
		{
			"mesh":3,
			"name":"Sphere.002",
			"scale":[
				0.22898954153060913,
				0.22898954153060913,
				0.22898954153060913
			],
			"translation":[
				2.4357802867889404,
				7.4309401512146,
				-1.5374755859375
			]
		},
		{
			"mesh":4,
			"name":"Sphere.003",
			"scale":[
				0.22898954153060913,
				0.22898954153060913,
				0.22898954153060913
			],
			"translation":[
				-0.040442537516355515,
				7.214474678039551,
				-3.200990676879883
			]
		},
		{
			"mesh":5,
			"name":"Sphere.004",
			"scale":[
				0.22898954153060913,
				0.22898954153060913,
				0.22898954153060913
			],
			"translation":[
				1.3279032707214355,
				7.986715793609619,
				-1.7982778549194336
			]
		},
		{
			"mesh":6,
			"name":"Sphere.005",
			"scale":[
				0.22898954153060913,
				0.22898954153060913,
				0.22898954153060913
			],
			"translation":[
				1.4712839126586914,
				7.986715793609619,
				1.4003305435180664
			]
		},
		{
			"mesh":7,
			"name":"Sphere.006",
			"scale":[
				0.22898954153060913,
				0.22898954153060913,
				0.22898954153060913
			],
			"translation":[
				1.8861496448516846,
				7.986715793609619,
				0.13434505462646484
			]
		},
		{
			"mesh":8,
			"name":"Sphere.007",
			"scale":[
				0.22898954153060913,
				0.22898954153060913,
				0.22898954153060913
			],
			"translation":[
				0.4714488983154297,
				9.798126220703125,
				0.13434505462646484
			]
		},
		{
			"mesh":9,
			"name":"Sphere.010",
			"scale":[
				0.22898954153060913,
				0.22898954153060913,
				0.22898954153060913
			],
			"translation":[
				-2.8711814880371094,
				6.608068466186523,
				-1.0598258972167969
			]
		},
		{
			"mesh":10,
			"name":"Sphere.011",
			"scale":[
				0.22898954153060913,
				0.22898954153060913,
				0.22898954153060913
			],
			"translation":[
				-0.6521474719047546,
				7.897205829620361,
				-1.7132635116577148
			]
		},
		{
			"mesh":11,
			"name":"Sphere.008",
			"scale":[
				0.22898954153060913,
				0.22898954153060913,
				0.22898954153060913
			],
			"translation":[
				-1.3153960704803467,
				7.951012134552002,
				1.147294044494629
			]
		},
		{
			"mesh":12,
			"name":"Sphere.012",
			"scale":[
				0.22898954153060913,
				0.22898954153060913,
				0.22898954153060913
			],
			"translation":[
				-1.3153960704803467,
				8.511892318725586,
				-0.48427581787109375
			]
		},
		{
			"mesh":13,
			"name":"Sphere.013",
			"scale":[
				0.22898954153060913,
				0.22898954153060913,
				0.22898954153060913
			],
			"translation":[
				0.0723748430609703,
				6.972572326660156,
				2.900423049926758
			]
		},
		{
			"mesh":14,
			"name":"Sphere.014",
			"scale":[
				0.22898954153060913,
				0.22898954153060913,
				0.22898954153060913
			],
			"translation":[
				-2.0962576866149902,
				6.972572326660156,
				1.9169349670410156
			]
		}
	],
	"materials":[
		{
			"doubleSided":true,
			"name":"trunk",
			"pbrMetallicRoughness":{
				"baseColorTexture":{
					"index":0
				},
				"metallicFactor":0,
				"roughnessFactor":0.5
			}
		},
		{
			"doubleSided":true,
			"name":"leaves",
			"pbrMetallicRoughness":{
				"baseColorTexture":{
					"index":1
				},
				"metallicFactor":0,
				"roughnessFactor":0.5
			}
		},
		{
			"doubleSided":true,
			"name":"apple",
			"pbrMetallicRoughness":{
				"baseColorFactor":[
					0.8000000715255737,
					0.015741875395178795,
					0.023663967847824097,
					1
				],
				"metallicFactor":0,
				"roughnessFactor":0.5
			}
		}
	],
	"meshes":[
		{
			"name":"Cylinder",
			"primitives":[
				{
					"attributes":{
						"POSITION":0,
						"TEXCOORD_0":1
					},
					"indices":2,
					"material":0
				}
			]
		},
		{
			"name":"Icosphere.052",
			"primitives":[
				{
					"attributes":{
						"POSITION":3,
						"TEXCOORD_0":4
					},
					"indices":5,
					"material":1
				},
				{
					"attributes":{
						"POSITION":6,
						"TEXCOORD_0":7
					},
					"indices":8,
					"material":1
				}
			]
		},
		{
			"name":"Sphere",
			"primitives":[
				{
					"attributes":{
						"POSITION":9,
						"TEXCOORD_0":10
					},
					"indices":11,
					"material":2
				}
			]
		},
		{
			"name":"Sphere.001",
			"primitives":[
				{
					"attributes":{
						"POSITION":12,
						"TEXCOORD_0":13
					},
					"indices":11,
					"material":2
				}
			]
		},
		{
			"name":"Sphere.002",
			"primitives":[
				{
					"attributes":{
						"POSITION":14,
						"TEXCOORD_0":15
					},
					"indices":11,
					"material":2
				}
			]
		},
		{
			"name":"Sphere.003",
			"primitives":[
				{
					"attributes":{
						"POSITION":16,
						"TEXCOORD_0":17
					},
					"indices":11,
					"material":2
				}
			]
		},
		{
			"name":"Sphere.004",
			"primitives":[
				{
					"attributes":{
						"POSITION":18,
						"TEXCOORD_0":19
					},
					"indices":11,
					"material":2
				}
			]
		},
		{
			"name":"Sphere.005",
			"primitives":[
				{
					"attributes":{
						"POSITION":20,
						"TEXCOORD_0":21
					},
					"indices":11,
					"material":2
				}
			]
		},
		{
			"name":"Sphere.006",
			"primitives":[
				{
					"attributes":{
						"POSITION":22,
						"TEXCOORD_0":23
					},
					"indices":11,
					"material":2
				}
			]
		},
		{
			"name":"Sphere.009",
			"primitives":[
				{
					"attributes":{
						"POSITION":24,
						"TEXCOORD_0":25
					},
					"indices":11,
					"material":2
				}
			]
		},
		{
			"name":"Sphere.010",
			"primitives":[
				{
					"attributes":{
						"POSITION":26,
						"TEXCOORD_0":27
					},
					"indices":11,
					"material":2
				}
			]
		},
		{
			"name":"Sphere.011",
			"primitives":[
				{
					"attributes":{
						"POSITION":28,
						"TEXCOORD_0":29
					},
					"indices":11,
					"material":2
				}
			]
		},
		{
			"name":"Sphere.013",
			"primitives":[
				{
					"attributes":{
						"POSITION":30,
						"TEXCOORD_0":31
					},
					"indices":11,
					"material":2
				}
			]
		},
		{
			"name":"Sphere.014",
			"primitives":[
				{
					"attributes":{
						"POSITION":32,
						"TEXCOORD_0":33
					},
					"indices":11,
					"material":2
				}
			]
		},
		{
			"name":"Sphere.015",
			"primitives":[
				{
					"attributes":{
						"POSITION":34,
						"TEXCOORD_0":35
					},
					"indices":11,
					"material":2
				}
			]
		}
	],
	"textures":[
		{
			"sampler":0,
			"source":0
		},
		{
			"sampler":0,
			"source":1
		}
	],
	"images":[
		{
			"bufferView":3,
			"mimeType":"image/png",
			"name":"trunkTexture"
		},
		{
			"bufferView":7,
			"mimeType":"image/png",
			"name":"Leaves"
		}
	],
	"accessors":[
		{
			"bufferView":0,
			"componentType":5126,
			"count":196,
			"max":[
				1.4772932529449463,
				1.28715181350708,
				1.4772932529449463
			],
			"min":[
				-1.4772932529449463,
				-0.7128481268882751,
				-1.4772932529449463
			],
			"type":"VEC3"
		},
		{
			"bufferView":1,
			"componentType":5126,
			"count":196,
			"type":"VEC2"
		},
		{
			"bufferView":2,
			"componentType":5123,
			"count":756,
			"type":"SCALAR"
		},
		{
			"bufferView":4,
			"componentType":5126,
			"count":89,
			"max":[
				1.018193244934082,
				2.4167988300323486,
				0.952908992767334
			],
			"min":[
				-0.8839224576950073,
				0.8868781924247742,
				-1.0470908880233765
			],
			"type":"VEC3"
		},
		{
			"bufferView":5,
			"componentType":5126,
			"count":89,
			"type":"VEC2"
		},
		{
			"bufferView":6,
			"componentType":5123,
			"count":303,
			"type":"SCALAR"
		},
		{
			"bufferView":8,
			"componentType":5126,
			"count":1170,
			"max":[
				2.562067985534668,
				1.3673226833343506,
				2.812046766281128
			],
			"min":[
				-2.683259963989258,
				-1.4717516899108887,
				-2.9054901599884033
			],
			"type":"VEC3"
		},
		{
			"bufferView":9,
			"componentType":5126,
			"count":1170,
			"type":"VEC2"
		},
		{
			"bufferView":10,
			"componentType":5123,
			"count":3726,
			"type":"SCALAR"
		},
		{
			"bufferView":11,
			"componentType":5126,
			"count":559,
			"max":[
				0.9999995827674866,
				1,
				0.9999993443489075
			],
			"min":[
				-0.9999991655349731,
				-1,
				-1
			],
			"type":"VEC3"
		},
		{
			"bufferView":12,
			"componentType":5126,
			"count":559,
			"type":"VEC2"
		},
		{
			"bufferView":13,
			"componentType":5123,
			"count":2880,
			"type":"SCALAR"
		},
		{
			"bufferView":14,
			"componentType":5126,
			"count":559,
			"max":[
				0.9999996423721313,
				1,
				0.9999993443489075
			],
			"min":[
				-0.9999991059303284,
				-1,
				-1
			],
			"type":"VEC3"
		},
		{
			"bufferView":15,
			"componentType":5126,
			"count":559,
			"type":"VEC2"
		},
		{
			"bufferView":16,
			"componentType":5126,
			"count":559,
			"max":[
				0.9999996423721313,
				1,
				0.9999993443489075
			],
			"min":[
				-0.9999991059303284,
				-1,
				-1
			],
			"type":"VEC3"
		},
		{
			"bufferView":17,
			"componentType":5126,
			"count":559,
			"type":"VEC2"
		},
		{
			"bufferView":18,
			"componentType":5126,
			"count":559,
			"max":[
				0.9999996423721313,
				1,
				0.9999993443489075
			],
			"min":[
				-0.9999991059303284,
				-1,
				-1
			],
			"type":"VEC3"
		},
		{
			"bufferView":19,
			"componentType":5126,
			"count":559,
			"type":"VEC2"
		},
		{
			"bufferView":20,
			"componentType":5126,
			"count":559,
			"max":[
				0.9999995827674866,
				1,
				0.9999993443489075
			],
			"min":[
				-0.9999991655349731,
				-1,
				-1
			],
			"type":"VEC3"
		},
		{
			"bufferView":21,
			"componentType":5126,
			"count":559,
			"type":"VEC2"
		},
		{
			"bufferView":22,
			"componentType":5126,
			"count":559,
			"max":[
				0.9999995827674866,
				1,
				0.9999993443489075
			],
			"min":[
				-0.9999991655349731,
				-1,
				-1
			],
			"type":"VEC3"
		},
		{
			"bufferView":23,
			"componentType":5126,
			"count":559,
			"type":"VEC2"
		},
		{
			"bufferView":24,
			"componentType":5126,
			"count":559,
			"max":[
				0.9999995827674866,
				1,
				0.9999993443489075
			],
			"min":[
				-0.9999991655349731,
				-1,
				-1
			],
			"type":"VEC3"
		},
		{
			"bufferView":25,
			"componentType":5126,
			"count":559,
			"type":"VEC2"
		},
		{
			"bufferView":26,
			"componentType":5126,
			"count":559,
			"max":[
				0.9999996423721313,
				1,
				0.9999993443489075
			],
			"min":[
				-0.9999991059303284,
				-1,
				-1
			],
			"type":"VEC3"
		},
		{
			"bufferView":27,
			"componentType":5126,
			"count":559,
			"type":"VEC2"
		},
		{
			"bufferView":28,
			"componentType":5126,
			"count":559,
			"max":[
				0.9999996423721313,
				1,
				0.9999993443489075
			],
			"min":[
				-0.9999991059303284,
				-1,
				-1
			],
			"type":"VEC3"
		},
		{
			"bufferView":29,
			"componentType":5126,
			"count":559,
			"type":"VEC2"
		},
		{
			"bufferView":30,
			"componentType":5126,
			"count":559,
			"max":[
				0.9999995827674866,
				1,
				0.9999993443489075
			],
			"min":[
				-0.9999991655349731,
				-1,
				-1
			],
			"type":"VEC3"
		},
		{
			"bufferView":31,
			"componentType":5126,
			"count":559,
			"type":"VEC2"
		},
		{
			"bufferView":32,
			"componentType":5126,
			"count":559,
			"max":[
				0.9999995827674866,
				1,
				0.9999993443489075
			],
			"min":[
				-0.9999991655349731,
				-1,
				-1
			],
			"type":"VEC3"
		},
		{
			"bufferView":33,
			"componentType":5126,
			"count":559,
			"type":"VEC2"
		},
		{
			"bufferView":34,
			"componentType":5126,
			"count":559,
			"max":[
				0.9999995827674866,
				1,
				0.9999993443489075
			],
			"min":[
				-0.9999991655349731,
				-1,
				-1
			],
			"type":"VEC3"
		},
		{
			"bufferView":35,
			"componentType":5126,
			"count":559,
			"type":"VEC2"
		},
		{
			"bufferView":36,
			"componentType":5126,
			"count":559,
			"max":[
				0.9999995827674866,
				1,
				0.9999993443489075
			],
			"min":[
				-0.9999991655349731,
				-1,
				-1
			],
			"type":"VEC3"
		},
		{
			"bufferView":37,
			"componentType":5126,
			"count":559,
			"type":"VEC2"
		}
	],
	"bufferViews":[
		{
			"buffer":0,
			"byteLength":2352,
			"byteOffset":0,
			"target":34962
		},
		{
			"buffer":0,
			"byteLength":1568,
			"byteOffset":2352,
			"target":34962
		},
		{
			"buffer":0,
			"byteLength":1512,
			"byteOffset":3920,
			"target":34963
		},
		{
			"buffer":0,
			"byteLength":531647,
			"byteOffset":5432
		},
		{
			"buffer":0,
			"byteLength":1068,
			"byteOffset":537080,
			"target":34962
		},
		{
			"buffer":0,
			"byteLength":712,
			"byteOffset":538148,
			"target":34962
		},
		{
			"buffer":0,
			"byteLength":606,
			"byteOffset":538860,
			"target":34963
		},
		{
			"buffer":0,
			"byteLength":228525,
			"byteOffset":539468
		},
		{
			"buffer":0,
			"byteLength":14040,
			"byteOffset":767996,
			"target":34962
		},
		{
			"buffer":0,
			"byteLength":9360,
			"byteOffset":782036,
			"target":34962
		},
		{
			"buffer":0,
			"byteLength":7452,
			"byteOffset":791396,
			"target":34963
		},
		{
			"buffer":0,
			"byteLength":6708,
			"byteOffset":798848,
			"target":34962
		},
		{
			"buffer":0,
			"byteLength":4472,
			"byteOffset":805556,
			"target":34962
		},
		{
			"buffer":0,
			"byteLength":5760,
			"byteOffset":810028,
			"target":34963
		},
		{
			"buffer":0,
			"byteLength":6708,
			"byteOffset":815788,
			"target":34962
		},
		{
			"buffer":0,
			"byteLength":4472,
			"byteOffset":822496,
			"target":34962
		},
		{
			"buffer":0,
			"byteLength":6708,
			"byteOffset":826968,
			"target":34962
		},
		{
			"buffer":0,
			"byteLength":4472,
			"byteOffset":833676,
			"target":34962
		},
		{
			"buffer":0,
			"byteLength":6708,
			"byteOffset":838148,
			"target":34962
		},
		{
			"buffer":0,
			"byteLength":4472,
			"byteOffset":844856,
			"target":34962
		},
		{
			"buffer":0,
			"byteLength":6708,
			"byteOffset":849328,
			"target":34962
		},
		{
			"buffer":0,
			"byteLength":4472,
			"byteOffset":856036,
			"target":34962
		},
		{
			"buffer":0,
			"byteLength":6708,
			"byteOffset":860508,
			"target":34962
		},
		{
			"buffer":0,
			"byteLength":4472,
			"byteOffset":867216,
			"target":34962
		},
		{
			"buffer":0,
			"byteLength":6708,
			"byteOffset":871688,
			"target":34962
		},
		{
			"buffer":0,
			"byteLength":4472,
			"byteOffset":878396,
			"target":34962
		},
		{
			"buffer":0,
			"byteLength":6708,
			"byteOffset":882868,
			"target":34962
		},
		{
			"buffer":0,
			"byteLength":4472,
			"byteOffset":889576,
			"target":34962
		},
		{
			"buffer":0,
			"byteLength":6708,
			"byteOffset":894048,
			"target":34962
		},
		{
			"buffer":0,
			"byteLength":4472,
			"byteOffset":900756,
			"target":34962
		},
		{
			"buffer":0,
			"byteLength":6708,
			"byteOffset":905228,
			"target":34962
		},
		{
			"buffer":0,
			"byteLength":4472,
			"byteOffset":911936,
			"target":34962
		},
		{
			"buffer":0,
			"byteLength":6708,
			"byteOffset":916408,
			"target":34962
		},
		{
			"buffer":0,
			"byteLength":4472,
			"byteOffset":923116,
			"target":34962
		},
		{
			"buffer":0,
			"byteLength":6708,
			"byteOffset":927588,
			"target":34962
		},
		{
			"buffer":0,
			"byteLength":4472,
			"byteOffset":934296,
			"target":34962
		},
		{
			"buffer":0,
			"byteLength":6708,
			"byteOffset":938768,
			"target":34962
		},
		{
			"buffer":0,
			"byteLength":4472,
			"byteOffset":945476,
			"target":34962
		}
	],
	"samplers":[
		{
			"magFilter":9729,
			"minFilter":9987
		}
	],
	"buffers":[
		{
			"byteLength":949948,
			"uri":"data:application/octet-stream;base64,"
		}
	]
}
