{
	"asset":{
		"generator":"Khronos glTF Blender I/O v3.6.27",
		"version":"2.0"
	},
	"scene":0,
	"scenes":[
		{
			"name":"Scene",
			"nodes":[
				0,
				1,
				2
			]
		}
	],
	"nodes":[
		{
			"mesh":0,
			"name":"Cube.003",
			"scale":[
				2.5,
				0.02500000037252903,
				1.5
			],
			"translation":[
				0.23876619338989258,
				0,
				0
			]
		},
		{
			"mesh":1,
			"name":"Cylindre",
			"rotation":[
				0,
				-0.06801529228687286,
				0,
				0.9976842999458313
			],
			"scale":[
				0.42500001192092896,
				0.02500000037252903,
				0.42500001192092896
			],
			"translation":[
				0.355681836605072,
				0,
				-0.3676754832267761
			]
		},
		{
			"mesh":2,
			"name":"Cube.001",
			"scale":[
				0.03500000014901161,
				0.02500000037252903,
				0.25
			],
			"translation":[
				0.45012545585632324,
				0,
				0.4779331088066101
			]
		}
	],
	"materials":[
		{
			"doubleSided":true,
			"name":"viewPicture",
			"pbrMetallicRoughness":{
				"baseColorFactor":[
					0.025023765861988068,
					0.8000000715255737,
					0.00694647990167141,
					1
				],
				"metallicFactor":0,
				"roughnessFactor":0.5
			}
		}
	],
	"meshes":[
		{
			"name":"Cube.001",
			"primitives":[
				{
					"attributes":{
						"POSITION":0,
						"NORMAL":1,
						"TEXCOORD_0":2
					},
					"indices":3,
					"material":0
				}
			]
		},
		{
			"name":"Cylindre",
			"primitives":[
				{
					"attributes":{
						"POSITION":4,
						"NORMAL":5,
						"TEXCOORD_0":6
					},
					"indices":7,
					"material":0
				}
			]
		},
		{
			"name":"Cube.002",
			"primitives":[
				{
					"attributes":{
						"POSITION":8,
						"NORMAL":9,
						"TEXCOORD_0":10
					},
					"indices":11,
					"material":0
				}
			]
		}
	],
	"accessors":[
		{
			"bufferView":0,
			"componentType":5126,
			"count":48,
			"max":[
				1.0000001192092896,
				1,
				1
			],
			"min":[
				-1.0000001192092896,
				-1,
				-1
			],
			"type":"VEC3"
		},
		{
			"bufferView":1,
			"componentType":5126,
			"count":48,
			"type":"VEC3"
		},
		{
			"bufferView":2,
			"componentType":5126,
			"count":48,
			"type":"VEC2"
		},
		{
			"bufferView":3,
			"componentType":5123,
			"count":96,
			"type":"SCALAR"
		},
		{
			"bufferView":4,
			"componentType":5126,
			"count":450,
			"max":[
				0.9936052560806274,
				1,
				2.420116901397705
			],
			"min":[
				-1.4851741790771484,
				-1,
				-0.9936052560806274
			],
			"type":"VEC3"
		},
		{
			"bufferView":5,
			"componentType":5126,
			"count":450,
			"type":"VEC3"
		},
		{
			"bufferView":6,
			"componentType":5126,
			"count":450,
			"type":"VEC2"
		},
		{
			"bufferView":7,
			"componentType":5123,
			"count":888,
			"type":"SCALAR"
		},
		{
			"bufferView":8,
			"componentType":5126,
			"count":84,
			"max":[
				7.142856597900391,
				0.9999999403953552,
				0.9999999403953552
			],
			"min":[
				-7.142856597900391,
				-0.9999999403953552,
				-0.9999999403953552
			],
			"type":"VEC3"
		},
		{
			"bufferView":9,
			"componentType":5126,
			"count":84,
			"type":"VEC3"
		},
		{
			"bufferView":10,
			"componentType":5126,
			"count":84,
			"type":"VEC2"
		},
		{
			"bufferView":11,
			"componentType":5123,
			"count":156,
			"type":"SCALAR"
		}
	],
	"bufferViews":[
		{
			"buffer":0,
			"byteLength":576,
			"byteOffset":0,
			"target":34962
		},
		{
			"buffer":0,
			"byteLength":576,
			"byteOffset":576,
			"target":34962
		},
		{
			"buffer":0,
			"byteLength":384,
			"byteOffset":1152,
			"target":34962
		},
		{
			"buffer":0,
			"byteLength":192,
			"byteOffset":1536,
			"target":34963
		},
		{
			"buffer":0,
			"byteLength":5400,
			"byteOffset":1728,
			"target":34962
		},
		{
			"buffer":0,
			"byteLength":5400,
			"byteOffset":7128,
			"target":34962
		},
		{
			"buffer":0,
			"byteLength":3600,
			"byteOffset":12528,
			"target":34962
		},
		{
			"buffer":0,
			"byteLength":1776,
			"byteOffset":16128,
			"target":34963
		},
		{
			"buffer":0,
			"byteLength":1008,
			"byteOffset":17904,
			"target":34962
		},
		{
			"buffer":0,
			"byteLength":1008,
			"byteOffset":18912,
			"target":34962
		},
		{
			"buffer":0,
			"byteLength":672,
			"byteOffset":19920,
			"target":34962
		},
		{
			"buffer":0,
			"byteLength":312,
			"byteOffset":20592,
			"target":34963
		}
	],
	"buffers":[
		{
			"byteLength":20904,
			"uri":"data:application/octet-stream;base64,"
		}
	]
}
